/* XPM */
static char * pokeball_xpm[] = {
"64 64 6 1",
" 	c #000000",
".	c #FF0000",
"+	c #FFFFFF",
"@	c #2B2B2B",
"#	c #191919",
"$	c #131313",
"     ......................................................     ",
"   ..........................................................   ",
"  ............................................................  ",
" .............................................................. ",
" .............................................................. ",
"................................................................",
"................................................................",
"................................................................",
"................................................................",
"................................................................",
"................................................................",
"................................................................",
"................................................................",
"................................................................",
"................................................................",
"................................................................",
"................................................................",
"................................................................",
"................................................................",
"................................................................",
"................................................................",
"................................................................",
"........................  ............  ........................",
".......................  ..............  .......................",
"......................  ................  ......................",
"......................  ................  ......................",
".....................  ..................  .....................",
".....................  ..................  .....................",
"....................  ....................  ....................",
"....................  ....................  ....................",
"....................  ....................  ....................",
"                                                                ",
"                                                                ",
"++++++++++++++++++++++++++++++++++++++++++++++++++++++++++++++++",
"++++++++++++++++++++++++++++++++++++++++++++++++++++++++++++++++",
"++++++++++++++++++++++++++++++++++++++++++++++++++++++++++++++++",
"++++++++++++++++++++++++++++++++++++++++++++++++++++++++++++++++",
"++++++++++++++++++++++++++++++++++++++++++++++++++++++++++++++++",
"++++++++++++++++++++++++++++++++++++++++++++++++++++++++++++++++",
"++++++++++++++++++++++++++++++++++++++++++++++++++++++++++++++++",
"++++++++++++++++++++++++++++++++++++++++++++++++++++++++++++++++",
"++++++++++++++++++++++++++++++++++++++++++++++++++++++++++++++++",
"++++++++++++++++++++++++++++++++++++++++++++++++++++++++++++++++",
"++++++++++++++++++++++++++++++++++++++++++++++++++++++++++++++++",
"++++++++++++++++++++++++++++++++++++++++++++++++++++++++++++++++",
"++++++++++++++++++++++++++++++++++++++++++++++++++++++++++++++++",
"++++++++++++++++++++++++++++++++++++++++++++++++++++++++++++++++",
"++++++++++++++++++++++++++++++++++++++++++++++++++++++++++++++++",
"++++++++++++++++++++++++++++++++++++++++++++++++++++++++++++++++",
"++++++++++++++++++++++++++++++++++++++++++++++++++++++++++++++++",
"++++++++++++++++++++++++++++++++++++++++++++++++++++++++++++++++",
"++++++++++++++++++++++++++++++++++++++++++++++++++++++++++++++++",
"++++++++++++++++++++++++++++++++++++++++++++++++++++++++++++++++",
"++++++++++++++++++++++++++++++++++++++++++++++++++++++++++++++++",
"++++++++++++++++++++++++++++++++++++++++++++++++++++++++++++++++",
"++++++++++++++++++++++++++++++++++++++++++++++++++++++++++++++++",
"++++++++++++++++++++++++++++++++++++++++++++++++++++++++++++++++",
"++++++++++++++++++++++++++++++++++++++++++++++++++++++++++++++++",
"++++++++++++++++++++++++++++++++++++++++++++++++++++++++++++++++",
" ++++++++++++++++++++++++++++++++++++++++++++++++++++++++++++++ ",
" ++++++++++++++++++++++++++++++++++++++++++++++++++++++++++++++ ",
"  ++++++++++++++++++++++++++++++++++++++++++++++++++++++++++++  ",
"   ++++++++++++++++++++++++++++++++++++++++++++++++++++++++++   ",
"     ++++++++++++++++++++++++++++++++++++++++++++++++++++++     ",
};
