/* XPM */
static char *_4a07346f9574b568bc37c0f39ea8b43[] = {
/* columns rows colors chars-per-pixel */
"64 64 111 2 ",
"   c #010302",
".  c #0C0100",
"X  c #050807",
"o  c #060709",
"O  c #070908",
"+  c #0D0C0C",
"@  c #120000",
"#  c #1C0000",
"$  c #0E100F",
"%  c #0F1110",
"&  c #131313",
"*  c #1D1E1D",
"=  c #220000",
"-  c #2C0000",
";  c #340100",
":  c #3D0A07",
">  c #3D0A08",
",  c #1E201F",
"<  c #1F2221",
"1  c #222423",
"2  c #2B2C2B",
"3  c #343535",
"4  c #393534",
"5  c #37383A",
"6  c #3A3B3B",
"7  c #420000",
"8  c #4D0604",
"9  c #470A07",
"0  c #440E0B",
"q  c #4A0D0A",
"w  c #560200",
"e  c #5C0302",
"r  c #550C0B",
"t  c #5A0E0B",
"y  c #59120E",
"u  c #5A1311",
"i  c #671916",
"p  c #691A16",
"a  c #7F2723",
"s  c #7D3433",
"d  c #3D3E40",
"f  c #404241",
"g  c gray29",
"h  c #5A4C4C",
"j  c #4E504F",
"k  c #4F5150",
"l  c #545454",
"z  c #5D5E5E",
"x  c #656565",
"c  c #727272",
"v  c #7B7C7C",
"b  c #802723",
"n  c #962622",
"m  c #982723",
"M  c #9C2A26",
"N  c #8C3734",
"B  c #A43734",
"V  c #A43835",
"C  c #AD3C36",
"Z  c #B33735",
"A  c #B23833",
"S  c #B53F3C",
"D  c #D7342D",
"F  c #DD322B",
"G  c #CC3731",
"H  c #C63D37",
"J  c #CD3832",
"K  c #C13D38",
"L  c #CE3F3B",
"P  c #D53630",
"I  c #D93733",
"U  c #D73934",
"Y  c #D83A35",
"T  c #D73E39",
"R  c #D93E39",
"E  c #E52E26",
"W  c #E52F29",
"Q  c #E53027",
"!  c #E53029",
"~  c #9B403F",
"^  c #B1403E",
"/  c #BE433D",
"(  c #C4433E",
")  c #CC423D",
"_  c #D1423C",
"`  c #BE4944",
"'  c #BB4D49",
"]  c #C34441",
"[  c #C44A45",
"{  c #808080",
"}  c #8C8D8C",
"|  c #8E908F",
" . c #9B9B9B",
".. c #A0A09E",
"X. c #A5A5A5",
"o. c gray66",
"O. c #B4B6B5",
"+. c #BCBCBC",
"@. c #C3C2C2",
"#. c #CCCCCC",
"$. c #CFD1D0",
"%. c #D2D2D2",
"&. c #DADADA",
"*. c #E5E5E5",
"=. c #E8E6E7",
"-. c #ECECEC",
";. c #F7F7F7",
":. c #F8F6F7",
">. c #F6F8F7",
",. c #FCF8F7",
"<. c #FEFEFE",
/* pixels */
"<.<.<...4 . . @ . @ . @ @ @ . @ @ @ @ @ @ . @ @ . @ @ @ . @ @ . @ @ . @ @ @ . @ @ @ @ @ . @ @ . @ @ . @ @ . @ @ . . . 6 X.<.<.<.",
"<.,.h @ # 0 q q q q q q q q q q q q q q q q q q q q q q q q q q q q q q q q q q q q q q q q q q q q q q q q q q q q > # @ h ,.<.",
"<.h = p S _ ] ) _ _ _ _ _ _ _ _ _ _ _ _ _ _ _ _ _ _ _ _ _ _ _ _ _ _ _ _ _ _ _ _ _ _ _ _ _ _ _ _ _ _ _ _ _ _ _ _ _ ] ) C y # h <.",
"X.@ p [ I W W W W E W E E E W E W W W W Q Q E E E E W Q E E W E E E E W E E W E Q Q W Q E E E W E E W E E W W E W W W Y ` r . X.",
"4 # S I F W ! ! ! ! ! ! ! ! W ! ! ! ! ! ! ! ! ! ! ! ! ! ! ! ! ! ! ! ! ! ! ! ! ! W ! Q ! W ! ! ! ! ! ! ! ! ! ! ! W ! ! F T B # 6 ",
". : ) W ! W ! ! ! ! ! ! ! ! ! ! ! ! ! ! ! ! ! ! ! ! ! Q ! ! ! ! ! ! ! ! ! ! ! ! ! ! ! ! ! ! ! ! ! ! ! ! ! ! ! ! W ! ! ! F K - O ",
". q L W ! ! ! ! ! ! ! ! ! ! W W Q ! ! ! ! ! ! ! ! ! ! ! ! ! ! ! ! ! ! ! ! ! ! ! ! ! W ! ! ! ! Q Q Q ! ! ! ! ! ! W ! ! ! ! K ; . ",
". 9 _ W W ! ! ! ! ! ! ! ! ! W ! W ! ! ! ! ! ! ! ! ! ! ! ! ! ! ! ! Q ! ! ! ! ! ! ! ! ! ! ! ! W ! Q Q ! ! ! ! ! ! ! ! ! ! ! H ; . ",
"@ q _ W W Q ! ! ! ! ! ! ! ! ! ! ! ! ! Q ! ! ! ! ! W ! ! ! W ! ! ! ! W ! ! ! ! ! ! ! ! ! ! ! ! ! Q E ! ! ! ! ! ! ! ! ! ! W H ;   ",
"@ q _ W Q Q ! ! ! ! Q W ! W ! ! ! ! W ! ! ! ! ! ! ! ! Q ! ! ! ! ! ! ! ! ! ! ! ! ! ! ! ! W ! ! ! Q ! ! ! ! ! ! ! ! ! ! ! ! K ; . ",
"@ 9 _ W W W ! ! W W W W ! ! ! ! ! ! ! ! ! ! ! ! ! ! ! ! ! ! ! ! ! ! ! ! ! ! ! ! ! ! ! ! ! ! W ! ! ! ! ! ! ! ! ! ! ! ! ! ! H ; . ",
". 9 _ W ! W ! ! W Q W W ! ! ! W ! ! ! ! ! ! ! ! ! ! W ! ! ! W ! ! ! ! ! ! ! ! ! ! ! ! Q ! ! ! ! ! ! ! ! ! ! ! ! ! ! ! ! ! H ;   ",
"@ 9 ] W W Q Q ! ! W ! ! ! ! ! ! ! ! ! ! ! Q ! W ! ! ! ! ! ! ! ! ! ! ! ! ! ! ! ! ! ! ! ! ! ! ! ! ! ! ! ! ! ! ! ! ! ! ! ! ! H ; . ",
"@ 9 T W W Q ! ! ! ! ! ! ! W ! ! ! ! ! ! ! ! ! ! W ! ! ! W ! ! ! ! ! ! ! ! ! ! W ! ! ! ! ! ! ! ! ! ! ! ! ! ! ! ! ! ! ! ! ! H ;   ",
". q _ W W Q ! W ! ! ! ! ! ! ! ! ! ! ! ! ! ! ! ! ! ! ! Q ! ! W W ! ! ! ! Q ! ! ! W ! ! ! ! ! ! ! ! ! ! ! ! ! ! ! ! ! ! ! ! H ; . ",
"@ q _ W ! ! ! ! ! ! W ! ! ! ! W ! ! ! ! ! ! ! ! ! Q Q Q ! ! ! W ! ! ! ! ! ! ! ! ! ! ! ! ! ! W Q ! ! ! ! ! ! ! ! ! ! ! ! ! H ; . ",
". 9 _ W W ! ! ! ! ! W ! ! ! ! ! ! ! ! ! ! ! ! ! ! ! ! ! ! ! W W W ! W W ! ! ! ! ! ! ! ! ! ! ! ! ! ! ! ! ! ! ! ! ! ! Q Q ! H ; . ",
"@ 9 _ W W ! ! ! ! ! W W ! ! ! ! ! ! ! ! ! W ! ! ! ! ! ! ! W W W ! W W W ! ! ! ! ! ! W ! ! ! ! ! ! ! ! ! ! ! ! ! ! ! Q Q ! K ;   ",
". 9 _ W ! ! ! ! Q Q ! ! ! ! ! ! ! ! ! ! ! ! ! ! ! ! ! ! E E E Q E W Q Q W ! ! ! ! ! ! ! ! ! Q Q ! ! Q Q ! ! ! ! ! ! ! ! ! H ; . ",
"@ 9 _ W ! ! ! ! Q Q ! W ! ! ! ! ! ! ! ! ! ! ! ! ! ! F D Y R T _ _ _ _ Y D ! ! ! ! ! ! ! ! ! Q Q ! ! Q Q ! Q ! ! ! ! ! ! ! H ; . ",
"@ q _ W ! ! ! ! ! ! ! ! ! ! ! ! ! ! W W ! W ! ! E F R ) V b i u i p b B ] R ! ! ! ! ! ! ! ! ! ! ! ! ! ! ! ! ! ! ! ! ! ! ! H ;   ",
". q _ W W ! ! ! ! ! ! ! ! ! ! ! ! W W W ! ! ! ! U ) M e - # @ @ @ # # ; e M ) I F ! ! W ! ! E ! ! ! ! ! ! ! ! ! ! ! ! ! ! K ; . ",
"@ 0 _ W ! W ! ! ! ! ! ! ! ! ! ! ! ! ! ! ! ! ! T ` r = @ @ . . . . . . @ @ = t ^ U ! ! ! ! ! ! ! ! ! ! ! ! W ! ! ! ! ! ! ! H ; . ",
"@ 9 ] W W W ! ! ! ! ! ! ! ! ! ! ! ! ! ! ! F Y Z 7 @ .   X X X   X X   X   . # 7 A T ! ! ! ! ! ! ! ! ! ! ! ! ! ! ! ! ! ! ! H ;   ",
". 9 ] W W ! ! ! ! W ! ! ! ! ! ! ! ! ! ! W I S 7 @ .   O   X               . . @ 7 ^ I ! Q Q ! ! ! ! ! ! ! ! Q Q W W ! ! ! H ;   ",
"@ 9 _ W W W ! ! W W ! ! W ! ! ! ! W ! ! F L r @ .   O     z X.+.+. .g     X o . @ r ) ! ! Q ! Q ! ! ! ! ! ! Q W ! ! ! ! ! ) ; . ",
". 9 T W W W ! ! ! ! ! ! ! ! W W ! ! ! F T n = .       5 &.<.<.<.<.<.<.@.*   X   . # m R F ! ! W ! ! ! ! ! ! Q Q Q Q W Q ! K ; . ",
". 0 [ D D D D D D D D D D D D D D D D J ` 8 @ X O   d <.<.,.,.<.<.,.,.<.=.*     X @ w [ G D D D D D D D D U D D D D D D D / ;   ",
". = ~ [ ] ( ] ( ] ] ( ( ] ( ] ( ( ( ( ' s # .     % =.<.,.<.<.<.<.<.<.:.<.@.    X . # s ' ( ] ] ] ( ] ( ] ( ( ( ( ( ( / ` N @   ",
"  . ; 8 w w w e w e e w w w w w w w w 8 # . .     v <.;.<.<.<.<.<.<.<.<.,.<.g       . # 8 w w w w w e w w w w w w w e w 8 - @   ",
"    @ @ @ @ @ @ @ @ # @ @ @ @ # @ @ @ . .     o   @.<.<.<.<.<.<.<.<.<.<.,.<. .    X . . . @ @ # @ # @ @ # @ @ @ @ @ @ @ @ .     ",
"      X       O       X   X   o X X X   X       + =.<.<.<.<.<.<.<.<.<.<.,.<.@.  X   X   X     X               X X   X   X     X ",
"            X   X     X     X   X       X   X X % -.<.<.<.<.<.<.<.<.<.<.<.<.@.  X       X X X X   X     X X       X       X     ",
"X                                                 $.<.<.<.<.<.<.<.<.<.<.,.<.X.  X     X       X             X         X X       ",
"  X   1 1 1 1 1 1 1 1 1 1 1 1 1 1 1 1 *       X   } <.,.<.<.<.<.<.<.<.<.,.<.z   X       , 1 1 1 1 1 1 1 1 1 1 1 1 < 1 1 1 X     ",
"X   +.<.>.>.,.,.>.>.,.>.>.<.,.,.>.,.;.<.}   X     < ,.<.<.<.<.<.<.<.<.,.<.&.          } <.>.>.>.,.>.,.:.>.>.,.,.>.,.,.>.<.O.    ",
"  2 <.<.<.<.<.<.<.<.<.<.<.<.<.<.<.<.<.<.<.,   X X   x <.<.,.<.<.<.<.,.<.<.6   X     1 <.<.<.<.<.<.<.<.<.<.<.<.<.<.<.<.<.<.<.2   ",
"  2 <.<.<.<.<.<.<.<.<.<.<.<.<.<.<.<.<.,.<.}           x ,.<.<.<.<.<.<.-.f   X   X   } <.,.<.<.<.<.<.<.<.<.<.<.<.<.<.<.<.<.<.2   ",
"  2 <.<.<.<.<.<.<.<.<.<.<.<.<.<.<.<.<.<.<.<.1   X       1 } %.-.=.#.v %   X   X   2 <.<.<.<.<.<.<.<.<.<.<.<.<.<.<.<.<.<.<.<.2   ",
"  2 <.<.<.<.<.<.<.<.<.<.<.<.<.<.<.<.<.<.,.<.%.  X X   X       & +           X     $.<.<.<.<.<.<.<.<.<.<.<.<.<.<.<.<.<.<.<.<.2   ",
"  2 <.<.<.<.<.<.<.<.<.<.<.<.<.<.<.<.<.<.<.,.<.+.          X         X   X     . +.<.<.<.<.<.<.<.<.<.<.<.<.<.<.<.<.<.<.<.<.<.2   ",
"  2 <.<.<.<.<.<.<.<.<.<.<.<.<.<.<.<.<.<.<.<.,.<.#.1     O X       X X O     1 #.<.>.<.<.<.<.<.<.<.<.<.<.<.<.<.<.<.<.<.<.<.<.2   ",
"  2 <.<.<.<.<.<.<.<.<.<.<.<.<.<.<.<.<.<.<.<.<.>.<.;.v *             X   * v ,.<.,.<.<.<.<.<.<.<.<.<.<.<.<.<.<.<.<.<.<.<.<.<.2   ",
"  2 <.<.<.<.<.<.<.<.<.<.<.<.<.<.<.<.<.<.<.<.<.<.<.<.<.-.X.x 6 2 2 6 x X.-.<.<.<.<.<.<.<.<.<.<.<.<.<.<.<.<.<.<.<.<.<.<.<.<.<.2   ",
"X 2 <.<.<.<.<.<.<.<.<.<.<.<.<.<.<.<.<.<.<.<.<.<.<.<.,.<.<.<.<.<.<.<.<.<.<.,.<.<.<.<.<.<.<.<.<.<.<.<.<.<.<.<.<.<.<.<.<.<.<.<.2   ",
"  2 <.<.<.<.<.<.<.<.<.<.<.<.<.<.<.<.<.<.<.<.<.<.<.<.<.<.<.,.<.<.<.<.,.,.<.<.<.<.<.<.<.<.<.<.<.<.<.<.<.<.<.<.<.<.<.<.<.<.<.<.2   ",
"  2 <.<.<.<.<.<.<.<.<.<.<.<.<.<.<.<.<.<.<.<.<.<.<.<.<.<.<.<.<.<.<.<.<.<.<.<.<.<.<.<.<.<.<.<.<.<.<.<.<.<.<.<.<.<.<.<.<.<.<.<.2   ",
"  2 <.<.<.<.<.<.<.<.<.<.<.<.<.<.<.<.<.<.<.<.<.<.<.<.<.<.<.<.<.<.<.<.<.<.<.<.<.<.<.<.<.<.<.<.<.<.<.<.<.<.<.<.<.<.<.<.<.<.<.<.2   ",
"  2 <.<.<.<.<.<.<.<.<.<.<.<.<.<.<.<.<.<.<.<.<.<.<.<.<.<.<.<.<.<.<.<.<.<.<.<.<.<.<.<.<.<.<.<.<.<.<.<.<.<.<.<.<.<.<.<.<.<.<.<.2   ",
"  2 <.<.<.<.<.<.<.<.<.<.<.<.<.<.<.<.<.<.<.<.<.<.<.<.<.<.<.<.<.<.<.<.<.<.<.<.<.<.<.<.<.<.<.<.<.<.<.<.<.<.<.<.<.<.<.<.<.<.<.<.2   ",
"  2 <.<.<.<.<.<.<.<.<.<.<.<.<.<.<.<.<.<.<.<.<.<.<.<.<.<.<.<.<.<.<.<.<.<.<.<.<.<.<.<.<.<.<.<.<.<.<.<.<.<.<.<.<.<.<.<.<.<.<.<.2   ",
"  2 <.<.<.<.<.<.<.<.<.<.<.<.<.<.<.<.<.<.<.<.<.<.<.<.<.<.<.<.<.<.<.<.<.<.<.<.<.<.<.<.<.<.<.<.<.<.<.<.<.<.<.<.<.<.<.<.<.<.<.<.2   ",
"  2 <.<.<.<.<.<.<.<.<.<.<.<.<.<.<.<.<.<.<.<.<.<.<.<.<.<.<.<.<.<.<.<.<.<.<.<.<.<.<.<.<.<.<.<.<.<.<.<.<.<.<.<.<.<.<.<.<.<.<.<.2   ",
"  2 <.<.<.<.<.<.<.<.<.<.<.<.<.<.<.<.<.<.<.<.<.<.<.<.<.<.<.<.<.<.<.<.<.<.<.<.<.<.<.<.<.<.<.<.<.<.<.<.<.<.<.<.<.<.<.<.<.<.<.<.2   ",
"  2 <.<.<.<.<.<.<.<.<.<.<.<.<.<.<.<.<.<.<.<.<.<.<.<.<.<.<.<.<.<.<.<.<.<.<.<.<.<.<.<.<.<.<.<.<.<.<.<.<.<.<.<.<.<.<.<.<.<.<.<.2   ",
"  2 <.<.<.<.<.<.<.<.<.<.<.<.<.<.<.<.<.<.<.<.<.<.<.<.<.<.<.<.<.<.<.<.<.<.<.<.<.<.<.<.<.<.<.<.<.<.<.<.<.<.<.<.<.<.<.<.<.<.<.<.2   ",
"X 2 <.<.<.<.<.<.<.<.<.<.<.<.<.<.<.<.<.<.<.<.<.<.<.<.<.<.<.<.<.<.<.<.<.<.<.<.<.<.<.<.<.<.<.<.<.<.<.<.<.<.<.<.<.<.<.<.<.<.<.<.2   ",
"  2 <.<.<.<.<.<.<.<.<.<.<.<.<.<.<.<.<.<.<.<.<.<.<.<.<.<.<.<.<.<.<.<.<.<.<.<.<.<.<.<.<.<.<.<.<.<.<.<.<.<.<.<.<.<.<.<.<.<.<.<.2   ",
"  1 <.<.<.<.<.<.<.<.<.<.<.<.<.<.<.<.<.<.<.<.<.<.<.<.<.<.<.<.<.<.<.<.<.<.<.<.<.<.<.<.<.<.<.<.<.<.<.<.<.<.<.<.<.<.<.<.<.<.<.<.1 . ",
"4   =.<.,.<.<.<.<.<.<.<.<.<.<.<.<.<.<.<.<.<.<.<.<.<.<.<.<.<.<.<.<.<.<.<.<.<.<.<.<.<.<.<.<.<.<.<.<.<.<.<.<.<.<.<.<.<.<.,.<.*.  5 ",
"X.  x <.<.>.,.,.<.,.,.,.,.,.<.,.,.,.>.,.<.,.,.,.,.,.<.,.,.,.>.<.<.,.,.,.,.,.<.,.,.,.>.,.>.,.,.,.,.,.<.,.,.>.,.,.<.,.,.<.<.x   X.",
"<.l   c ,.<.<.<.<.<.<.<.<.<.<.<.<.<.<.<.<.<.<.<.<.<.<.<.<.<.<.<.<.<.<.<.<.<.<.<.<.<.<.<.<.<.<.<.<.<.<.<.<.<.<.<.<.<.<.;.c   l <.",
"<.,.l   + j z z z z z z z z z z z z z z z z z z z z z z z z z z z z z z z z z z z z z z z z z z z z z z z z z z z z j +   l ,.<.",
"<.<.<.X.3                                                                                 X                           3 o.<.<.<."
};
