/* XPM */
static char *f60c320379144bbbd293fafbe46b26cd[] = {
/* columns rows colors chars-per-pixel */
"64 64 119 2 ",
"   c #010101",
".  c #0C0101",
"X  c #000608",
"o  c #000909",
"O  c #0B0B0B",
"+  c #130304",
"@  c #1D0302",
"#  c #1B0807",
"$  c #1C0708",
"%  c #100E0E",
"&  c #1E0A0A",
"*  c #0A1314",
"=  c #0D1818",
"-  c #131313",
";  c #181415",
":  c #161E1F",
">  c #1A1A1A",
",  c #260505",
"<  c #2E0605",
"1  c #260807",
"2  c #230A0A",
"3  c #2B0D0D",
"4  c #370907",
"5  c #350D0D",
"6  c #3B0B0C",
"7  c #3C1212",
"8  c #1A2122",
"9  c #242424",
"0  c #232828",
"q  c #2C2C2C",
"w  c #2E3639",
"e  c #343434",
"r  c #333837",
"t  c #303738",
"y  c #323939",
"u  c #3B3C3C",
"i  c #431212",
"p  c #491614",
"a  c #541516",
"s  c #5C1A1B",
"d  c #641C1D",
"f  c #6A1A1A",
"g  c #722221",
"h  c #7B2222",
"j  c #39403F",
"k  c #3E4443",
"l  c #434343",
"z  c #454A4A",
"x  c #4C4C4C",
"c  c #4E5352",
"v  c #545454",
"b  c #5C5C5C",
"n  c #5F5F60",
"m  c #5F6060",
"M  c #646464",
"N  c #666969",
"B  c #6B6C6C",
"V  c #75736F",
"C  c #737373",
"Z  c #7A7A7A",
"A  c #8C2525",
"S  c #832728",
"D  c #882428",
"F  c #922628",
"G  c #932A2C",
"H  c #9D2B2C",
"J  c #9F2E32",
"K  c #A32D2E",
"L  c #AB2D2E",
"P  c #B1312F",
"I  c #A32F30",
"U  c #AD3232",
"Y  c #B53333",
"T  c #BC3332",
"R  c #C33636",
"E  c #C43837",
"W  c #C83835",
"Q  c #C63538",
"!  c #CA3439",
"~  c #C6383B",
"^  c #CB3A3C",
"/  c #D23A3B",
"(  c #DB3D3E",
")  c #E33F3D",
"_  c #EB3F3F",
"`  c #EA403F",
"'  c #DD3E41",
"]  c #E63D40",
"[  c #E44040",
"{  c #EC4142",
"}  c #F44343",
"|  c #FE4445",
" . c #FF4846",
".. c #FF4748",
"X. c #FF4949",
"o. c #838383",
"O. c #8D8D8D",
"+. c #949494",
"@. c #999797",
"#. c #9E9E9E",
"$. c #A3A3A3",
"%. c #ACACAB",
"&. c #B0AFAE",
"*. c #B5B5B5",
"=. c #B9B6B5",
"-. c #BDBDBD",
";. c #C0BDBE",
":. c #C3C3C3",
">. c #C9C7C6",
",. c #CBCBCB",
"<. c #D4D4D4",
"1. c #DCDBDB",
"2. c #E0DEDE",
"3. c #E4E3E3",
"4. c #ECECEC",
"5. c #F1EEEE",
"6. c #F2F0EF",
"7. c #F3F3F3",
"8. c #FFFFFF",
/* pixels */
"8.8.8.8.8.8.8.8.8.8.8.8.8.8.8.8.8.8.8.8.7.8.8.8.8.8.3.>.%.+.o.Z Z Z +.%.>.3.8.8.8.8.8.8.8.8.8.8.8.8.8.8.8.8.8.8.8.8.8.8.8.8.8.8.",
"8.8.8.8.8.8.8.8.8.8.8.8.8.8.8.8.8.8.8.8.8.8.1.$.M w *         .           = y N $.2.8.8.8.7.8.8.8.8.8.8.8.8.8.8.8.8.8.8.8.8.8.8.",
"8.8.8.8.8.8.8.8.8.8.8.8.8.8.8.8.8.8.8.5.#.z X   . 4 f F U R W ( ( W E U A f 4 .   o z $.5.8.8.8.8.8.8.8.8.8.8.8.8.8.8.8.8.8.8.8.",
"8.8.8.8.8.8.8.8.8.8.8.8.8.8.8.8.8.3.Z :   + d U ) X.X.X... . .| X.X.X.X.X.X...) U s +   8 o.4.8.8.8.8.8.8.8.8.8.8.8.8.8.8.8.8.8.",
"8.8.8.8.8.8.8.8.8.8.8.8.8.8.8.6.o.*   6 I ] .... .| | } | | | | | | | | } | | | ..X.] I 5   = o.5.8.8.8.8.8.8.8.8.8.8.8.8.8.8.8.",
"8.8.8.8.8.8.8.8.8.8.8.8.8.8.&.8   i R  .X.| | | | | | | | | | | | | | | | | | | | } ..X.X.T i   0 *.8.8.8.8.8.8.8.8.8.8.8.8.8.8.",
"8.8.8.8.8.8.8.8.8.8.8.8.7.n   , Y ..| | | | | | | | | | | | | | | | | | | | | | | | | | | X.| U @   B 8.8.8.8.8.8.8.8.8.8.8.8.8.",
"8.8.8.8.8.8.8.8.8.8.8.1.q   g } ..| | | | | | | | | | | | | | | | | | | | | | | | | | | | | | | ] f   r 1.8.7.8.8.8.8.8.8.8.8.8.",
"8.8.8.8.8.8.8.8.8.8.,.;   g X.| } | | | | | | | | | | | | | | | | | | | | | | | | | | | | | | |  .X.J   O :.8.8.8.8.8.8.8.8.8.8.",
"8.8.8.8.8.8.8.8.8.-.X     p | | | | | | | | | | | | | | | | | | | | | | | | | | | | | | | | | | | | ..R +   -.8.8.8.8.8.8.8.8.8.",
"8.8.8.8.8.8.8.8.-.X   .   . ^  .| | | | | | | | | | | | | | | | | | | | | | | | | | | | | | | | | | | | ( #   -.8.8.8.8.8.8.8.8.",
"8.8.8.8.8.8.8.<.O   X       g X.| | | | | | | | | | | | | | | | | | | | | | | | | | | | | | | | | | | |  .' + X <.8.8.8.8.8.8.8.",
"8.8.8.8.8.8.4.>   X         & ` | | | | | | | | | | | | | | | | | | | | | | | | | | | | | | | | | | | | |  .^ . 0 6.8.8.8.8.8.8.",
"8.8.8.8.8.8.u   v             G ..} | | | | | | | | | | | | | | | | | | | | | | | | | | | | | | | | | |  .} ..U   v 8.8.8.8.8.8.",
"8.8.8.8.8.O.  +.2.O           3 } | | | | | | | | | | | | | | | | | | | | | | | | | | | | | | | | | | | | | | X.h   @.8.8.8.8.8.",
"8.8.8.8.<.  l 8.8.l         .   H ..| | | | | | | | | | | | | | | | | | | | | | | | | | | | | | | | | | | | | | | 5 * 2.8.8.8.8.",
"8.8.8.8.x   <.8.8.#.            2 { | | | | | | | | | | | | | | | | | | | | | | | | | | | | | | | | | | | | | | | ~   M 8.8.8.8.",
"8.8.8.-.  Z 8.8.8.4.: .       .   D ..| | | | | | | | | | | | | | | | | | | | | | | | | | | | | | | | | | | | | | | d   ,.8.8.8.",
"8.8.8.l O 3.8.8.8.8.Z   X         + (  .| | | | | | | | | | | | | | ..| | | | | | | | | | | | | | | | | | | | | | | '   b 8.8.8.",
"8.8.-.  Z 8.8.8.8.8.3.%         .   a  .| | | | | | | | | | | | | | | | | | | | | | | | | | | | | | | | | | | | | } ..s X <.8.7.",
"8.8.b   1.8.8.8.8.8.8.B   X       .   K ..| | | | | | | | | | | | | | | | | | | | | | | | | | | | | | | | | | | | | X.~   C 8.8.",
"8.3.O x 8.8.8.8.8.8.8.3.;             2 )  .| | | | | | | | | | | | | | | | | | | | | | | | | | | | | | | | | | | | | X.4 : 6.8.",
"8.$.  %.8.8.8.8.8.8.8.8.o.              a  .| | | | | | | | | | | | | | | | | | | | | | | | | | | | | | | | | | | | } X.G   *.8.",
"8.v X 3.8.8.8.8.8.8.8.8.7.e               A ..} | | | | | | | | | | | | | | | | | | | | | | | | | | | | | | | | | | |  .(   B 8.",
"6.> l 8.8.8.8.8.8.8.8.8.8.&.              . R  .| | | | | | | | | | | | | | | | | | | | | | | | | | | | | | | | | | | | | < t 8.",
",.  o.8.8.8.8.8.8.8.8.8.8.8.M               2 ) | | | } | | | | | | | | | | | | | | | | | | | | | | | | | | | | | | | | | f * 1.",
"$.  *.8.8.8.8.8.8.8.8.8.8.8.4.9               7 | ..| ..X. . .| | | | | | | | | | | | | | | | | | | | | | | | | | | | | X.H   *.",
"C   1.8.8.8.8.8.8.8.8.8.8.8.8.*.            .   d { Y F D H R  ...} | | | | | | | | | | | | | | | | | | | | | | | | | |  .E   O.",
"x % 4.8.8.8.8.8.8.8.8.8.8.8.8.8.C   X             #         . 7 Y | } | | | | | | | | | | | | | | | | | | | | | | | | |  .(   B ",
"e 9 8.8.8.8.8.8.8.8.8.8.8.8.8.8.8.u                 .       X     h | | | | | | | | | | | | | | | | | | | | | | | | | |  .` + v ",
"8 e 8.8.8.8.8.8.8.8.8.8.8.8.8.8.8.1.;   .           X 9 0 O         h | | | | | | | | | | | | | | | | | | | | | | | | | | } @ k ",
"> u 8.8.8.8.8.8.8.8.8.8.8.8.8.8.8.8.*.            b ,.7.7.1.C         Y | | | | | | | | | | | | | | | | | | | | | | |  . .} 1 u ",
"> u 8.8.8.8.8.8.8.8.8.8.8.8.8.8.8.7.8.+.    .   Z 8.8.8.8.8.8.#.      p ..| | | | | | | | | | | | | | | | | | | | | | | | } , u ",
": r 8.8.8.8.8.8.8.8.8.8.8.8.8.8.8.8.8.8.v     r 8.8.8.8.8.8.8.8.v   o + (  .| | | | | | | | | | | | | | | | | | | | | |  .} @ k ",
"e 9 8.8.8.8.8.8.8.8.8.8.8.8.8.8.8.8.8.8.v     o.8.7.8.8.8.8.8.8.&.  .   Y | | | | | | | | | | | | | | | | | | | | | | |  .] . v ",
"x - 5.8.8.8.8.8.8.8.8.8.8.8.8.8.8.8.8.8.u     %.8.8.8.8.8.8.8.8.,.X X   L | | | | | | | | | | | | | | | | | | | | | | |  .(   B ",
"M   1.8.8.8.8.8.8.8.8.8.8.8.8.8.8.8.8.8.v     +.8.7.8.8.8.8.8.8.-.  X   T X.| | | | | | | | | | | | | | | | | | | | | |  .Q   O.",
"@.. -.8.8.8.8.8.8.8.8.8.8.8.8.8.8.8.8.8.Z     l 8.8.8.8.8.8.7.8.B   . # ( | | | | | | | | | | | | | | | | | | | | | | } X.H   =.",
">.  O.8.8.8.8.8.8.8.8.8.8.8.8.8.8.8.8.8.,.    . +.8.8.8.8.8.8.-.X .   3 } | } | | | | | | | | | | | | | | | | | | | | | X.f * 2.",
"4.; x 8.8.8.8.8.8.8.8.8.8.8.8.8.8.8.8.8.8.b   X X o.5.8.8.6.$.-         p `  .} | | | | | | | | | | | | | | | | | |  .| | < e 8.",
"8.x % 5.8.8.8.8.8.8.8.8.8.8.8.8.8.8.8.8.8.3.0   X   : x x 0               & ! X.| | | | | | | | | | | | | | | | | | |  ./   B 8.",
"8.+.  =.8.8.8.8.8.8.8.8.8.8.8.8.8.8.8.8.8.8.1.q     .       X           .   . H  . .} | | | | | | | | | | | | | | | | ..G   *.8.",
"8.1.  b 8.8.8.8.8.8.8.8.8.8.8.8.8.8.8.8.8.8.8.5.Z >                             d _  .| | | | | | | | | | | | | | | |  .6 8 6.8.",
"8.8.x X 3.8.8.8.8.8.8.8.8.8.8.8.8.8.8.8.8.8.8.8.8.3.*.O.o.$.B                     2 Y  .| | | | | | | | | | | | | | ..~   V 8.8.",
"7.8.*.  o.8.8.8.8.8.8.8.8.8.8.8.8.8.8.8.8.8.8.8.8.8.8.8.8.8.8.+.    X                 f ` X.| | | | | | | | | | | | X.d X <.8.8.",
"8.8.8.e > 7.8.8.8.8.8.8.8.8.8.8.8.8.8.8.8.8.8.8.8.8.8.7.8.8.8.8.*.>                     2 K |  .| } | | | | | | |  .(   v 8.8.8.",
"8.8.8.%.  O.8.8.8.8.8.8.8.8.8.8.8.8.8.8.8.8.8.8.8.8.8.8.8.8.8.8.8.1.l                 .     7 T | | | | | | | | }  .d   ,.8.8.8.",
"8.8.8.8.r O 3.8.8.8.8.8.8.8.8.8.8.8.8.8.8.8.8.8.8.8.8.8.8.8.8.8.8.8.8.Z     X             .     a T | | | | | }  .^   b 8.7.8.8.",
"8.8.8.8.:.  b 8.8.8.8.8.8.8.8.8.8.8.8.8.8.8.8.8.8.8.8.8.8.8.8.8.8.8.8.8.*.0                         i L }  .| | | 5 O 3.8.8.8.8.",
"8.8.8.8.8.Z   %.8.7.8.8.8.8.8.8.8.8.8.8.8.8.8.8.8.8.8.8.8.8.8.8.8.8.8.8.8.5.M         .           .     3 h Q | S   +.8.8.8.8.8.",
"8.8.8.8.8.7.0   <.8.8.8.8.8.8.8.8.8.8.8.8.8.8.8.8.8.8.8.8.8.8.8.8.8.8.8.8.8.8.*.q     X               X     . 7   c 8.8.8.8.8.8.",
"8.8.8.8.8.8.1.  9 4.8.8.8.8.8.8.8.8.8.8.8.8.8.8.8.8.8.8.8.8.8.8.8.8.8.8.8.8.8.8.7.o.%     X                 X   9 4.8.8.8.8.8.8.",
"8.8.8.8.8.8.8.*.  e 6.8.8.8.8.8.8.8.8.8.8.8.8.8.8.8.8.8.8.8.8.8.8.8.8.8.8.8.8.8.8.8.3.B O                 X   % <.8.8.8.8.8.8.8.",
"8.8.8.8.8.8.8.8.$.  r 5.8.8.8.8.8.8.8.8.8.8.8.8.8.8.8.8.8.8.8.8.8.8.8.8.8.8.8.8.8.8.8.8.1.C ;           .     -.8.8.8.8.8.8.8.8.",
"8.8.8.8.8.8.8.8.8.$.  q 3.8.8.8.8.8.8.8.8.8.8.8.8.8.8.8.8.8.8.8.8.8.8.8.8.8.8.8.8.8.8.8.8.8.3.O.r     .   X *.8.8.8.8.8.8.8.8.8.",
"8.8.8.8.8.8.8.8.8.8.%.  > :.8.8.8.8.8.8.8.8.8.8.8.8.8.8.8.8.8.8.8.8.8.8.8.8.8.8.8.8.8.8.8.8.8.8.8.,.r   - :.8.8.8.8.8.8.8.8.8.8.",
"8.8.8.8.8.8.8.8.8.8.8.:.%   O.8.8.8.8.8.8.8.8.8.8.8.8.8.8.8.8.8.8.8.8.8.8.8.8.8.8.8.8.8.8.8.7.8.7.Z   0 <.8.8.8.8.8.8.8.8.8.8.8.",
"8.8.8.8.8.8.8.8.8.8.7.8.3.l   k ,.8.8.8.8.8.8.8.8.8.8.8.8.8.8.8.8.8.8.8.8.8.8.8.8.8.8.8.7.8.8.-.9   n 7.8.8.8.8.8.8.8.8.8.8.8.8.",
"8.8.8.8.8.8.8.8.8.8.8.8.8.8.O.X   M <.8.8.8.7.8.8.8.8.8.8.8.8.8.8.8.8.8.8.8.8.8.8.8.8.8.8.,.x   > &.8.8.8.8.8.8.8.8.8.8.8.8.8.8.",
"8.8.8.8.8.8.8.8.8.8.8.8.8.8.8.2.M     b -.8.8.8.8.8.7.8.8.8.8.8.8.8.8.8.8.8.8.8.8.8.7.&.l     Z 5.8.8.8.8.8.8.8.8.8.8.8.8.8.8.8.",
"8.8.8.8.8.8.8.8.8.8.8.8.8.8.8.8.8.,.b   . 0 o.,.7.8.8.8.8.8.8.8.8.8.8.8.8.8.8.5.-.C >   % C 1.8.8.8.8.8.8.8.8.8.8.8.8.8.8.8.8.8.",
"8.8.8.8.8.8.8.8.8.8.8.8.8.8.8.8.8.8.8.1.o.0     > x Z %.:.<.3.4.3.3.<.:.#.Z l %     r @.4.8.8.8.8.8.8.8.8.8.8.8.8.8.8.8.8.8.8.8.",
"8.8.8.8.8.8.8.8.8.8.8.8.8.8.8.8.8.8.7.8.8.8.,.o.x >         O O O X         8 v +.<.8.8.8.8.8.8.8.8.8.8.8.8.8.8.8.8.8.8.8.8.8.8.",
"8.8.8.8.8.8.8.8.8.8.8.8.8.8.8.8.8.8.8.8.8.8.8.8.8.6.<.*.+.Z M b n B Z +.*.1.8.8.8.8.8.7.8.8.8.8.8.8.8.8.8.8.8.8.8.8.8.8.8.8.8.8."
};
