/* XPM */
static char *_a1b5cde9979401bcba1c820eab78bc3[] = {
/* columns rows colors chars-per-pixel */
"64 64 102 2 ",
"   c #010000",
".  c #0A0404",
"X  c #0F0708",
"o  c #0D0C0C",
"O  c #130606",
"+  c #1C0807",
"@  c #150708",
"#  c #1D0709",
"$  c #130C0D",
"%  c #1D0809",
"&  c #141414",
"*  c #181817",
"=  c #181718",
"-  c #1B1B1B",
";  c #200907",
":  c #220A0A",
">  c #2C0C0B",
",  c #330E0D",
"<  c #3B0F0F",
"1  c #390F10",
"2  c #3B1111",
"3  c #1F2020",
"4  c #242424",
"5  c #2B2B2B",
"6  c #2F3131",
"7  c #333434",
"8  c #373836",
"9  c #3B3B3B",
"0  c #451213",
"q  c #4B1415",
"w  c #551618",
"e  c #5B1919",
"r  c #661B1A",
"t  c #6C1D1D",
"y  c #731E1F",
"u  c #71211E",
"i  c #7C211F",
"p  c #731E20",
"a  c #772221",
"s  c #792221",
"d  c #3F4241",
"f  c #424242",
"g  c #4B4C4C",
"h  c #545454",
"j  c #565857",
"k  c #5A5B5B",
"l  c #5F5F61",
"z  c #636363",
"x  c #676868",
"c  c #6B6B6B",
"v  c #6F7070",
"b  c #747474",
"n  c #7A7A7A",
"m  c #832422",
"M  c #892425",
"N  c #8C2729",
"B  c #902728",
"V  c #962829",
"C  c #9B2A2B",
"Z  c #A22D2D",
"A  c #A92E2E",
"S  c #AE2E31",
"D  c #B22F32",
"F  c #B63132",
"G  c #BC3334",
"H  c #C43636",
"J  c #C83736",
"K  c #C73739",
"L  c #CD3738",
"P  c #CE3839",
"I  c #D23939",
"U  c #DC3C3D",
"Y  c #E33D3E",
"T  c #E93F3E",
"R  c #ED413F",
"E  c #F0413F",
"W  c #E63F41",
"Q  c #EC3F40",
"!  c #E64042",
"~  c #EE4141",
"^  c #F54342",
"/  c #FE4445",
"(  c #838383",
")  c #8B8B8B",
"_  c #8F908F",
"`  c #959595",
"'  c #9C9C9C",
"]  c #A3A4A3",
"[  c #A7A8A7",
"{  c #ACACAC",
"}  c #B3B3B3",
"|  c #BDBDBD",
" . c #C0BFC0",
".. c #BEC2C0",
"X. c #C3C3C3",
"o. c #CBCCCB",
"O. c #D3D3D3",
"+. c #DCDCDC",
"@. c #E4E4E4",
"#. c #EBECEC",
"$. c #F4F4F4",
"%. c #FEFEFE",
/* pixels */
"%.%.%.%.%.%.%.%.$.%.%.%.%.%.%.%.%.%.%.%.%.%.%.%.#.o.[ ( x g 9 9 9 9 g x ( { o.#.%.%.%.%.%.%.%.%.%.%.%.%.%.%.%.%.%.%.%.%.%.%.%.%.",
"%.%.%.%.%.%.%.%.%.%.%.%.%.%.%.%.%.%.%.%.%.+.{ b d 3 & @ # > , 1 1 , > # $ $ - d b { @.$.%.%.%.%.%.%.%.%.%.%.%.%.%.%.%.%.%.%.%.%.",
"%.%.%.%.%.%.%.%.%.%.%.%.%.%.%.%.%.%.$. .b 7 $ # 0 p C G I U T Q Q W Y I G C p 0 # & 7 n X.$.%.%.%.%.%.%.%.%.%.%.$.%.%.%.%.%.%.%.",
"%.%.%.%.%.%.%.%.%.%.%.%.%.%.%.%.$.} l = @ 0 B L ~ / / / / / / / / / / / / / / Q L B 0 @ = j } $.%.%.%.%.%.%.%.%.%.%.%.%.%.%.%.%.",
"%.%.%.%.%.%.%.%.%.%.%.%.$.%.%.o.l = # r K ~ / / / / / / / / / / / / / / / / / / / / Q G r # & l o.%.%.%.%.%.%.%.%.%.%.%.%.%.%.%.",
"%.%.%.%.%.%.%.%.%.%.%.%.%.#._ 4 $ t K ^ / / / / / / / / / / / / / / / / / / / / / / / / ^ K t # 4 ) #.%.%.%.%.%.%.%.%.%.$.%.%.%.",
"%.%.%.%.$.%.%.%.%.%.%.%.O.j o 0 D ^ / / / / / / / / / / / / / / / / / / / / / / / / / / / / ^ D 0 o j O.%.%.%.%.%.$.%.%.%.%.%.%.",
"%.%.%.%.%.%.%.%.%.%.%.| 8 O i Y / / / / / / / / / / / / / / / / / / / / / / / / / / / / / / / / Y i O 8 } %.%.%.%.%.%.%.%.%.%.%.",
"%.%.%.%.%.%.%.%.%.$.{ 4 % C ^ / / / / / / / / / / / / / / / / / / / / / / / / / / / / / / / / / / E Z ; 4 [ %.%.%.%.%.%.%.%.%.%.",
"%.%.%.%.%.%.%.%.%.] - , G / / / / / / / / / / / / / / / / / / / / / / / / / / / / / / / / / / / / / / G > - [ $.%.%.%.%.%.%.%.%.",
"%.%.%.%.%.%.%.%.{ - 2 J / / / / / / / / / / / / / / / / / / / / / / / / / / / / / / / / / / / / / / / / J 2 3 { %.%.%.%.%.%.$.%.",
"%.%.%.%.%.$.%.| 4 > L / / / / / / / / / / / / / / / / / / / / / / / / / / / / / / / / / / / / / / / ^ / / H , 4 | %.%.%.%.%.%.%.",
"%.%.%.$.%.%.+.9 ; F / / / / / / / / / / / / / / / / / / / / / / / / / / / / / / / / / / / / / / / / / / / / F + 9 +.%.%.%.%.%.%.",
"%.%.%.%.%.$.l O C / / / / / / / / / / / / / / / / / / / / / / / / / / / / / / / / / / / / / / / / / / / / / / C O z #.%.%.%.%.%.",
"%.%.%.%.%.' o u E / / E / E / / / / / / / / / / / / / / / / / / / / / / / / / / / / / / / / / / / / / / / / / ~ y o ' %.%.%.%.%.",
"%.%.%.%.O.6 2 U / / / / / / / / / / / / / / / / / / / / / / / / / / / / / / / / / / / / / / / / / / / / / / / / U < 5 O.%.%.%.%.",
"%.%.%.$.v O A / / / / / / / / / / / / / / / / / / / / / / / / / / / / / / / / / / / / / / / / / / / / / / / / / / A X v $.%.%.%.",
"%.%.%.o.- e ~ / / / / / / / / / / / / / / / / / / / / / / / / / / / / / / / / / / / / / / / / / / / / / / / / / / ~ e - o.%.%.%.",
"%.%.$.c $ G / / / / / / / / / / / / / / / / / / / / / / / / / / / / / / / / / / / / / / / / / / / / / / / / / / / / G @ v $.%.%.",
"%.%.O.4 w ^ / / / / / / / / / / / / / / / / / / / / / / / / / / / / / / / / / / / / / / / / / / / / / / / / / / / / ^ w 3 O.%.%.",
"%.%._ X A / / / / / / / / / / / / / / / / / / / / / / / / / / / / / / / / / / / / / / / / / / / / / / / / / / / / / / S X ) %.%.",
"%.#.f 1 ! / / / / / / / / / / / / / / / / / / / / / / / / / / / / / / / / / / / / / / / / / / / / / / / / / / / / / / ! 1 f #.%.",
"%.X.* i ^ / / / / / / / / / / / / / / / / / / / / / / / / / / / / / / / / / / / / / / / / / / / / / / / / / / / / / / ^ i * X.%.",
"%._ @ G / / / / / / / / / / / / / / / / / / / / / / / / / / / / / / / / / / / / / / / / / / / / / / / / / / / / / / / / F O ) %.",
"$.j , Y / / / / / / / / / / / / / / / / / / / / / / / / / / / / / / / / / / / / / / / / / / / / / / / / / / / / / / / / ! , j $.",
"@.6 e E / / / / / / / / / / / / / / / / / / / / / / / / / / / / / / / / / / / / / / / / / / / / / / / / / / / / / / / / ^ e 6 +.",
"X.- M E / / / / / / / / / / / / / / / / / / / / / / / / / / / / / / / / / / / / / / / / / / / / / / / / / / / / / / / ^ E M - ..",
"] & A / / / / / / / / / / / / / / / / / / / / / / / / / / / / / / / / / / / / / / / / / / / / / / / / / / / / / / / / / / A $ ] ",
"( . r P ^ / / / / / / / / / / / / / / / / / / / / / / / / ^ ~ W R ~ / / / / / / / / / / / / / / / / / / / / / / / / / ~ F q X ( ",
"b   . : t H ~ / / / / / / / / / / / / / / / / / / / / ~ G p 2 1 , q s P ^ / / / / / / / / / / / / / / / / / / / / Y A q O   . v ",
"c         @ q V I ^ / / / / / / / / / / / / / / / / ! t $           . : N R / / / / / / / / / / E / / / / ^ ! H a , .         l ",
"l             . : e V L ! / / / / / / / / / / / / U q .                 . y R / / / / / / / / / / / E Y G m 0 @               j ",
"z                   . # 0 t C H U E ^ / / / / / ~ r       = g v x 9 o     . V / / / / / / E R I D N e , O                     j ",
"x                           . O > q r m Z F J U Z O .   9 | $.%.%.@.) *     > G I J S V a e 2 : .                             l ",
"v                                         . O ; @     6 o.%.%.%.%.%.%._ o     % + . .                                         v ",
"( & l 9 .                                             ) %.%.%.%.%.%.%.#.d                                               & 5 . ( ",
"' & ] @.' 9 o                                       =  .%.%.%.%.%.%.%.%.b                                           = j } ' & ' ",
" .= ) %.%.@.} z 4 o                                 - o.%.%.%.%.%.%.%.%.(                                     o 8 n X.$.%.) = | ",
"@.5 z %.%.%.%.%.+.' z 6 &                           o } %.%.%.%.%.%.%.%.z                             . * 9 b } @.%.%.%.%.l 5 +.",
"$.h 6 @.%.%.%.%.%.%.%.@.| ) k 6 - o                   z $.%.%.%.%.%.%.O.4                     & 3 9 x ' o.@.%.%.%.%.%.%.@.7 h $.",
"%.( & X.%.%.%.%.%.%.%.%.%.%.%.@.o.{ ) x g 9 4 - &     & ` $.%.%.%.%.@.j       o = - 5 9 j b ` } O.#.%.%.%.%.%.%.%.%.%.%.X.& ( %.",
"%.| & ( %.%.%.%.%.%.%.%.%.%.%.%.%.%.%.%.$.#.+.o.} d     = v | +.O.{ f       z } X.O.@.#.$.%.%.%.%.%.%.%.%.%.%.%.%.%.%.%.( & | %.",
"%.#.9 9 #.%.%.%.%.%.%.%.%.%.%.%.%.%.%.%.%.%.%.%.%.o.6       & 4 - o       j @.%.%.%.%.%.%.%.%.%.%.%.%.%.%.%.%.%.%.%.%.#.8 9 #.%.",
"%.%.( o } %.%.%.%.%.%.%.%.%.%.%.%.%.%.%.%.%.%.%.%.%.o.g o             & x @.%.%.%.%.%.%.%.%.%.%.%.%.%.%.%.%.%.%.%.%.%.} o ( %.%.",
"%.%.o.- j $.%.%.%.%.%.%.%.%.%.%.%.%.%.%.%.%.%.%.%.%.%.@.' g 4 - - 6 k { $.%.%.%.%.%.%.%.%.%.%.%.%.%.%.%.%.%.%.%.%.%.$.j - o.%.%.",
"%.%.%.z = ..%.%.%.%.%.%.%.%.%.%.%.%.%.%.%.%.%.%.%.%.%.%.%.$.+.O.o.@.%.%.%.%.%.%.%.%.%.%.%.%.%.%.%.%.%.%.%.%.%.%.%.%.X.= z %.%.%.",
"%.%.%.X.& z $.%.%.%.%.%.%.%.%.%.%.%.%.%.%.%.%.%.%.%.%.%.%.%.%.%.%.%.%.%.%.%.%.%.%.%.%.%.%.%.%.%.%.%.%.%.%.%.%.%.%.$.z = | %.%.%.",
"%.%.%.$.z & } %.%.%.%.%.%.%.%.%.%.%.%.%.%.%.%.%.%.%.%.%.%.%.%.%.%.%.%.%.%.%.%.%.%.%.%.%.%.%.%.%.%.%.%.%.%.%.%.%.%.} & z $.%.%.%.",
"%.%.%.%.o.4 f @.%.%.%.%.%.%.%.%.%.%.%.%.%.%.%.%.%.%.%.%.%.%.%.%.%.%.%.%.%.%.%.%.%.%.%.%.%.%.%.%.%.%.%.%.%.%.%.%.@.9 4 o.%.%.%.%.",
"%.%.%.%.%._ o n $.%.%.%.%.%.%.%.%.%.%.%.%.%.%.%.%.%.%.%.%.%.%.%.%.%.%.%.%.%.%.%.%.%.%.%.%.%.%.%.%.%.%.%.%.%.%.%.n o _ %.%.%.%.%.",
"%.%.%.%.%.#.j & [ %.%.%.%.%.%.%.%.%.%.%.%.%.%.%.%.%.%.%.%.%.%.%.%.%.%.%.%.%.%.%.%.%.%.%.%.%.%.%.%.%.%.%.%.%.%.] = j #.%.%.%.%.%.",
"%.%.%.$.%.%.O.6 4 X.%.%.%.%.%.%.%.%.%.%.%.%.%.%.%.%.%.%.%.%.%.%.%.%.%.%.%.%.%.%.%.%.%.%.%.%.%.%.%.%.%.%.%.%.X.4 6 O.%.%.%.%.%.%.",
"%.%.%.%.%.$.%.} - 8 o.%.%.%.%.%.%.%.%.%.%.%.%.%.%.%.%.%.%.%.%.%.%.%.%.%.%.%.%.%.%.%.%.%.%.%.%.%.%.%.%.%.%.o.9 - } %.%.%.%.%.%.%.",
"%.%.%.%.%.%.%.%.] = 9 O.%.%.%.%.%.%.%.%.%.%.%.%.%.%.%.%.%.%.%.%.%.%.%.%.%.%.%.%.%.%.%.%.%.%.%.%.%.%.%.%.O.f = ' %.%.%.%.%.%.%.%.",
"%.%.%.%.%.%.%.%.%.` & 9 o.%.%.%.%.%.%.%.%.%.%.%.%.%.%.%.%.%.%.%.%.%.%.%.%.%.%.%.%.%.%.%.%.%.%.%.%.%.%.o.9 = ` $.%.%.%.%.%.%.%.%.",
"%.%.%.%.%.%.%.%.%.$.' - 5 { %.%.%.%.%.%.%.%.%.%.%.%.%.%.%.%.%.%.%.%.%.%.%.%.%.%.%.%.%.%.%.%.%.%.%.%.{ 5 - ' %.%.%.%.%.$.%.%.%.%.",
"%.%.%.%.%.%.$.%.%.%.$.{ 6 & ) #.%.%.%.%.%.%.%.%.%.%.%.%.%.%.%.%.%.%.%.%.%.%.%.%.%.%.%.%.%.%.%.%.#.( = 5 { $.%.%.%.%.%.%.%.%.%.%.",
"%.%.%.%.%.%.%.%.%.%.%.%.o.g o g X.%.%.%.%.%.%.%.%.%.%.%.%.%.%.%.%.%.%.%.%.%.%.%.%.%.%.%.%.%.%.X.h o g o.%.%.%.%.%.%.%.%.%.%.%.%.",
"%.%.%.%.%.%.%.%.%.%.%.%.%.@.( = - b O.%.%.%.%.%.%.%.%.%.%.%.%.%.%.%.%.%.%.%.%.%.%.%.%.%.%.O.n - - ( @.%.%.%.%.%.%.%.%.%.%.%.%.%.",
"%.%.%.%.%.%.%.%.%.%.%.%.%.%.%.| h o 4 b o.$.%.%.%.%.%.%.%.%.%.%.%.%.%.%.%.%.%.%.%.%.$.o.b 4 & g | $.%.%.%.%.%.%.%.$.%.%.%.%.%.%.",
"%.%.%.%.%.%.%.%.%.$.%.%.%.%.%.%.#.{ g & = j ] +.$.%.%.%.%.%.%.%.%.%.%.%.%.%.%.$.+.] j = & g ] #.%.%.%.%.%.%.%.%.%.%.%.%.%.$.%.%.",
"%.$.%.%.%.%.%.%.%.%.%.%.%.%.%.%.%.%.#.} z 4 o 4 j ) { o.+.#.#.$.$.#.#.+.o.} ( j 4 o 4 z } #.%.%.%.%.%.%.%.%.%.%.%.%.%.%.%.%.%.%.",
"%.%.%.%.%.%.%.%.%.%.%.%.%.%.%.%.%.%.%.%.$.O.] z 6 = = - 4 8 9 f f 9 9 4 - & - 6 k ] O.$.%.%.%.%.%.%.%.%.%.%.%.%.%.%.%.%.%.%.%.%.",
"%.%.%.%.%.%.%.%.%.%.%.%.%.%.%.%.%.%.%.%.%.%.%.$.@.| ` v h 9 7 6 8 6 9 g v ` | @.%.%.%.%.%.%.%.%.%.%.%.%.%.%.%.%.$.%.%.%.%.%.%.%."
};
