/* XPM */
static char *_5e8cfde4e1f455ae7bd6eaf5fc25c7c[] = {
/* columns rows colors chars-per-pixel */
"64 64 212 2 ",
"   c #030304",
".  c #050509",
"X  c #0A070B",
"o  c #0A090A",
"O  c #0B0814",
"+  c #160E16",
"@  c #151416",
"#  c #161419",
"$  c #19141B",
"%  c #1C1B1C",
"&  c #0E0F20",
"*  c #191725",
"=  c #1C1B24",
"-  c #1A1A2B",
";  c #251B25",
":  c #231B29",
">  c #271B28",
",  c #291C31",
"<  c #272628",
"1  c #2A212A",
"2  c #282A37",
"3  c #2B2E3C",
"4  c #312E32",
"5  c #322E3B",
"6  c #2D313B",
"7  c #37343A",
"8  c #34333C",
"9  c #322D40",
"0  c #353341",
"q  c #3B3A47",
"w  c #413E49",
"e  c #44434C",
"r  c #49444B",
"t  c #4A4A4C",
"y  c #494754",
"u  c #464A57",
"i  c #464A5B",
"p  c #574B59",
"a  c #4C515C",
"s  c #5A555C",
"d  c #614F5F",
"f  c #60535F",
"g  c #535464",
"h  c #5C5363",
"j  c #5A5A63",
"k  c #51546A",
"l  c #575A6A",
"z  c #5D5C6B",
"x  c #635362",
"c  c #645B67",
"v  c #5E6071",
"b  c #64646A",
"n  c #686669",
"m  c #666573",
"M  c #6D6E7B",
"N  c #716D7B",
"B  c #6C727B",
"V  c #76757C",
"C  c #737483",
"Z  c #797986",
"A  c #75778D",
"S  c #837B86",
"D  c #847D95",
"F  c #7D8691",
"G  c #7E8CA0",
"H  c #87848B",
"J  c #8A8B96",
"K  c #858798",
"L  c #8C8E9E",
"P  c #97889C",
"I  c #86919B",
"U  c #989699",
"Y  c #A2919F",
"T  c #818EA0",
"R  c #8C97AA",
"E  c #9D94A5",
"W  c #9B9AA6",
"Q  c #9E96AA",
"!  c #9B99B1",
"~  c #A293A4",
"^  c #A39AA7",
"/  c #AD95AC",
"(  c #A59BAB",
")  c #A99AAA",
"_  c #B096AE",
"`  c #A39DB3",
"'  c #AA9FB3",
"]  c #B59AB5",
"[  c #9BA5B5",
"{  c #A7A5AC",
"}  c #AAA4B4",
"|  c #A9A5B9",
" . c #B3A9B6",
".. c #B5A2BE",
"X. c #BCA5BC",
"o. c #BCA9BC",
"O. c #ADB6BD",
"+. c #B4B2BC",
"@. c #BBB5BC",
"#. c #9BA9C4",
"$. c #9EA8C5",
"%. c #A6A6C5",
"&. c #ADA5C5",
"*. c #A2ABC6",
"=. c #ACACC4",
"-. c #AEACCA",
";. c #B3A4C4",
":. c #BCA4C3",
">. c #B3ACC4",
",. c #BCABC4",
"<. c #B3A4C8",
"1. c #BEA6CB",
"2. c #B6AACC",
"3. c #BAABCB",
"4. c #A9B2C7",
"5. c #B8B7C7",
"6. c #BBBAC4",
"7. c #B4B1CC",
"8. c #BBB3CD",
"9. c #BCB4D2",
"0. c #B9B8D1",
"q. c #C3A4C4",
"w. c #C9A5C7",
"e. c #C5ABC5",
"r. c #C8AAC6",
"t. c #C4A5CB",
"y. c #C9A5CA",
"u. c #C5AACA",
"i. c #CAABCA",
"p. c #C3B2C4",
"a. c #C4BAC4",
"s. c #C9B8C6",
"d. c #C4B3CC",
"f. c #CDB3CE",
"g. c #C5BDCC",
"h. c #CABCCC",
"j. c #D0B2CF",
"k. c #CCB4D1",
"l. c #C4BBD3",
"z. c #C4B9D4",
"x. c #CBBBD3",
"c. c #D1B6D1",
"v. c #D3BCD4",
"b. c #D5BCD7",
"n. c #D9BFD9",
"m. c #B7C0CA",
"M. c #BAC3CD",
"N. c #B7C3D3",
"B. c #BBC1D2",
"V. c #C4C2CE",
"C. c #CBC1CD",
"Z. c #C9CACD",
"A. c #CDC2D3",
"S. c #C7C8D5",
"D. c #CCC5D9",
"F. c #D3C2D4",
"G. c #D3C9D4",
"H. c #D8CCD7",
"J. c #D4C5DB",
"K. c #DCC4DD",
"L. c #D5CBDC",
"P. c #DBCBDD",
"I. c #CCD3DB",
"U. c #D2D3D5",
"Y. c #D6D4DE",
"T. c #DBD3DE",
"R. c #D7D9DC",
"E. c #E0C8DE",
"W. c #DDC5E0",
"Q. c #D3CCE1",
"!. c #DCCDE2",
"~. c #CCD0E3",
"^. c #DCD3E3",
"/. c #D6D8E6",
"(. c #DCDBE4",
"). c #DDDBEA",
"_. c #E2CCE3",
"`. c #E4CCE6",
"'. c #E8CEE7",
"]. c #E3D3E5",
"[. c #E3DBE5",
"{. c #E5D5E9",
"}. c #EAD4EA",
"|. c #E4DBEA",
" X c #EBDBED",
".X c #ECDEF0",
"XX c #F3DDF3",
"oX c #DAE1E8",
"OX c #DAE2EB",
"+X c #E2E2E3",
"@X c #E5E3EC",
"#X c #ECE1ED",
"$X c #E4E8EE",
"%X c #EDEAED",
"&X c #ECE4F2",
"*X c #E6E8F3",
"=X c #ECECF4",
"-X c #F3E4F3",
";X c #F4EBF4",
":X c #F8EDF7",
">X c #F7E7F8",
",X c #F5ECF9",
"<X c #FAEBFB",
"1X c #ECF1F4",
"2X c #EDF1F9",
"3X c #F5F3F5",
"4X c #F8F3F7",
"5X c #F7F8F7",
"6X c #F5F3FA",
"7X c #FBF5FB",
"8X c #F5F9FC",
"9X c #FBF9FB",
/* pixels */
"8X5X7XG.X $ # $ # # # $ # $ $ @ # # # # $ # # @ # # # # $ $ @ @ # # # # # # @ # $ # $ # # $ # # $ # $ $ # # # @ @ @ o Z.7X7X6X6.",
"5X5X+X@ % @X%X%X#X#X#X#X&X.X#X.X-X&X.X#X#X#X#X#X#X#X#X#X#X&X#X X.X#X.X.X#X#X.X#X|..X#X.X#X#X|..X#X#X#X.X#X#X#X%X%X$X% + +X9X7X6X",
"8X9X+Xo % 3X7X;Xp.u.u.e.e.u.e.e.y.y.y.t.i.t.u.y.i.y.i.i.u.t.e.y.e.u.e.u.e.u.e.e.u.i.u.u.e.u.e.e.w.u.e.e.u.u.q.;X5X5X% X +X5X7X7X",
"5X5X+Xo $ %X;X&X,.t.t.1.1.1.1.1.t.1.t.1.1.t.t.t.t.t.t.t.1.t.t.t.t.t.t.1.1.1.t.t.t.1.t.t.1.1.t.t.t.1.1.1.:.1.,..X;X%X% X +X7X7X;X",
"5X5X+Xo $ a.h.d.&.%.7.%.-.2.&.<.<.-.7.%.2.2.&.&.&.-.7.%.2.2.<.<.&.-.7.%.2.2.&.;.&.7.4.%.2.<.;.;.&.7.*.-.2.2.;.s.s.a.# o +X5X3Xa.",
"5X5X+Xo % ;X7X;X7.S.).-.z.|.9.2.2.~./.%.D.{.d.3.2.Q.~.%.Q.{.9.2.9./.S.%.Q.!.9.2.9./.0.-.).Q.8.2.0.).7.2.|.D.7.>X7X4X% o +X5X4X7X",
"5X5X+Xo % 3X3X1XD.|.<.3.t.c. Xz.J.!.<.t.1.b.{.z.Q.Q.;.t.1.b.`.z.^.x.;.t.t.W.P.z.{.z.<.1.t.`.J.x.|.9.,.1.t.}.F.,X7X5X% . +X5X7X%X",
"9X5X@Xo % 3X5X5X;X..u.t.t.y.x.7X.X..t.t.y.t.J.7X|...t.y.t.t.W.7X!.;.t.y.y.q.}.9XF.:.t.y.y.q..X7Xl.:.y.y.t.<.;X9X5X3X% o +X5X4XZ.",
"5X5X+Xo % 3X4X7X Xc.w.y.y.u.J..X Xf.q.y.y.i.J.&X].f.q.y.y.d.!..X_.i.w.y.t.z.!..XP.i.y.y.t.x.^..XK.i.w.y.t.x.|.6X4X3X%   +X9X5X9X",
"9X5X+Xo % 5X5X;Xp.}.c.w.i.W.!.;.f.}.c.q.u.!.L...b.'.j.t.u.].D...J.'.i.q.k.{.x.:.E.E.i.q.c.{.d.:.`.K.r.t.b.|.,.=X5X3X% o +X5X9X7X",
"5X5X+Xo $ 3X5X:Xr.i.}.F.J.T.;.t.y.f.}.F.!.J.;.t.q.b.].F.!.D.;.t.q.K.].v.^.k.:.y.w.E.W.F.].d.1.t.w._.K.D.{.3.o.=X5X3X% . +X5X9X7X",
"5X9X+Xo % 3X5X:Xw.q.f.9X-X..t.y.t.t.x.7X|.;.u.y.y.q.P.9X!.;.t.y.y.:.].9XJ...t.y.y.:..X9Xl.:.y.y.y.X.-X7Xd.:.t.;X5X3X% o +X9X9X9X",
"5X8X+Xo % 3X5X;Xq.u.P.^.].b.q.y.t.k.!.^.`.b.t.y.y.k.!.{.].j.t.y.t.j.!.]._.k.y.y.t.v.`.{.W.k.y.y.y.b.^.{.P.w.e.;X5X3X% o +X5X5X4X",
"9X7X+Xo @ 3X5X;Xd.!.!...u.}.F.t.u.!.J.;.j.'.b.:.d.`.x.;.b.'.j.:.c.].x...n.`.f.:.b.].d...K._.i.:.J.].3.;._.E.e.;X5X3X% . +X5X4X9X",
"5X5X@Xo % 3X7X6XL.P.;.t.q.i.].P.!.J.:.1.t.j.].!.!.b.:.t.t.c.].!.!.k.:.y.q.b._.P.!.d.:.t.q.K.!.P.^.3.:.y.q._.P.4X9X3X% o +X5X5X9X",
"5X5X+Xo % 3X8X7X,X..t.y.y.t.c.9XXX..t.y.y.:.F.9X{...t.t.y.:.!.9X!.;.t.t.y.:.|.9XA.:.t.y.y.:.&X7Xk.:.y.y.q.,.,X9X5X3X% o +X5X8XT.",
"9X5X+Xo % 3X5X4XE.E.w.w.y.d.^.J._.K.w.y.w.k.^.P._.n.w.y.y.c.!.!._.b.q.y.t.F.!.P.].j.q.y.t.J.J.T._.i.w.y.u.!.L.;X5X3X% o +X5X5XY.",
"9X5X+Xo % 5X9X;Xr._.E.q.d.].A.;.i.'.K.q.f.`.x.:.f.'.n.X.x.`.d...c.'.c.:.F._.8...b.'.j.:.P.^.3.:.J.'.i.q.W.P.>.;X5X3X% . +X5X9X7X",
"9X5X+Xo % 3X9X;Xq.i.P.{.!.v.:.t.w.i._.{.^.k.;.y.y.j._.{.!.d.:.y.q.c._.[.!.9.;.y.q.b._.[.J.8.:.y.q.n.'.].L.,.:.;X5X3X% o +X5X7X9X",
"9X5X+Xo % 3X4X;Xr.q.d.7X-X..t.y.y.q.x.9X|...t.y.y.:.J.9X].:.y.t.y.:.].9XJ.:.t.y.y.X..X9Xx.:.y.y.y.o.>X9Xd.:.e.;X5X5X% . +X5X7XH.",
"5X5X+Xo $ 3X3X;Xq.i.|.A.K.`.t.t.y.k.^.A.E.P.q.y.y.b.^.x._.n.t.t.t.J.P.F.{.c.y.y.t.!.J.F.{.j.y.y.y.].J.F.{.i.q.;X9X3X% . +X4X5X[.",
"5X5X+Xo % 3X5X%X6. Xz.:.u.K.`.:.k.}.z.:.i._.E.:.v.].d.:.i.`.K.:.J.^.e.:.j.`.v.:.W.T.,.:.c.}.k.:.`.F.:.t.b.}.p.;X9X5X% . +X8X7X9X",
"4X5X+Xo % 6X7X7X|.l.<.1.t.u.W..X).d.;.t.y.d.P.XX^.9.<.t.t.k.`.&X!.7.;.t.t.k.].&XQ.3.1.t.y.k.|..XD.3.1.t.q.x. X6X9X5X% o +X5X7XG.",
"5X5X+Xo $ a.C.h.9.&.-.<.<.;.2.D.9.&.<.<.<.;.3.l.8.&.<.<.<.&.9.z.7.&.2.<.:.&.9.l.3.&.&.<.<.<.9.z.2.&.&.<.1.;.z.h.C.a.$ o +X9X7X+X",
"5X5X+XX % {.#X}.3.2.2.2.2.2.2.2.2.2.2.2.2.2.2.2.2.9.2.2.2.2.2.2.3.2.2.2.2.9.2.2.2.2.2.2.2.2.2.2.2.2.2.3.2.2.1.}.#X|.% X +X9X5X9X",
"7X5X@Xo % 3X7X>X1.t.t.u.t.t.t.t.t.t.t.t.t.t.t.t.t.t.t.t.t.t.t.t.t.t.t.t.t.t.t.t.t.t.t.t.t.t.t.u.t.t.t.t.t.t.:.:X7X4X% o +X5X9X7X",
"9X5X+Xo % 3X4X;Xe.q.t.t.y.q.y.y.y.q.t.t.q.r.u.q.t.y.t.t.w.y.u.y.t.y.q.q.y.y.t.t.q.y.q.y.t.u.t.q.y.y.q.y.y.y.q.;X9X3X% o +X9X9X7X",
"9X5X+Xo + @.s.p.q.o.q.t.o.q.,.:.,.q.:.t.,.q.q.q.:.:.t.1.o.,.q.:.t.o.:.q.,.:.t.t.o.q.:.q.t.t.t.q.q.y.q.q.e.q.q.p.s.@.$ X +X5X7X9X",
"7X5X[.X X ; > > : : : : : : , : ; ; : : : : : : : : : : : : : : : ; : : ; : : : : : : > : : : : : : > : > : : > ; ; X X [.5X4X5X",
"9X5X+X% Y Y Y ~ L L L L L L L L L L L L L L L L L L L L L L L L L I L L L L L L L L K L L L L L L L L L L L L ~ ~ Y E $ +X5X5X7X",
"7X4X X$ ; $ > ; - - - - - - - - - - - - - - - - * - - * - - - - - - - - - - - - - - - - - - - - - - * - - - * ; ; $ ; + [.4X7X6X",
"<Xs.r.] Y ; [.[.} W Q Q Q W ! ` ! W E E E Q ! ` ! Q Q E Q Q ` ` ! W ~ E E ! ` ` ! Q E ~ Q Q ` ` ! Q Q E Q Q ` [.+X1 Y ] e.f.>Xg.",
"<Xr.w.w._ 1 4X;XJ < : 1 ; : q ` S > 1 > > = i ' N ; 1 ; > ; z } c = > > > ; N ' p ; : > ; ; Z ' q ; > > > : J $X7X1 / t.y.e.>X<X",
"<Xi.w.w./ 1 4XU.4 %X%X;X_.a.>.  e ;X=X;X!.C.E   z 3X;X;XF.L.Z   Z ,X%X-XC.T.z   W 5X%X#Xh.(.e   5.;X-X&Xp.(.5 U.6X1 _ y.y.u.<X7X",
"<Xr.w.w._ 1 4XU.< 5X9X#XA.|.H   q 9X7X[.F.|.M   j 9X7X^.P.^.g   S 9X9XH.(.G.e   ^ 9X7XG.|.Z.5   a.9X6XA.@X5.= U.7X1 _ t.y.r.<X>X",
"<Xr.w.w./ 1 4XU.< 7X#XC.).=.K   e 9X[.F./.7.N   b 9X_.L.~.>.j   S 9XT.^.S.7.e   ^ 9XF.).0.>.5   6.7XA.|.5.7.= U.6X1 / t.y.r.>Xx.",
"<Xi.y.w._ 1 4XU.< @XD.|.=.7.H   8 %XG.^.=.7.C   s @XL.Y.=.7.l   V (.^.D.=.7.e   E T.[.V.4.=.3   @.H.|.5.=.+.* U.6X1 / y.y.e.<X7X",
"<Xr.y.w._ 1 4XR.4 U 6.J L K C * q { 6.K L K v - t  . .K L K k * s +.{ K K I u * b @.W J J K q = V 6.E L K K 3 R.6X1 / y.y.e.>X>X",
"<Xr.y.w./ 1 4X;X} 8 8 8 8 8 a 0.W 5 5 8 0 6 v V.K 5 0 0 0 9 C V.Z 5 8 0 0 5 F V.m 5 8 8 0 5 R g.h 5 0 8 9 0 [ 1X6X1 / t.y.e.>Xv.",
"<Xr.y.w./ 1 4X4X-X-X-X-X-X&X2X6X#X>X-X-X-X&X2X6X-X-X-X-X-X*X2X6X#X-X-X-X-X*X2X,X-X-X-X>X-X*X6X;X-X-X-XXX-X*X8X8X5X, / y.y.r.<X7X",
"<Xi.y.w._ 1 4X;Xo.q.o.o.o. .5.#Xo.o.X.X.o.} V.@X..o.o.o.o. .G.^.X.o.X.o.o.} R.L.X.o.o.X. .} @XA.X.o.o.X. .} =X8X7X1 / y.y.u.<X7X",
"<Xr.y.w./ 1 4X;XF.n.F.F.F.C.I.>XF.F.F.v.F.C.T.&XF.b.F.v.F.V.(.&XF.n.F.v.v.l.$X{.v.F.F.F.v.z.=XT.v.F.F.c.F.V.2X8X8X1 / y.i.u.<X7X",
"<Xi.i.w./ 1 4X4X X X&X<XXX X X}. XXX.X<X}. X.X X X}.-X>X X X X}. X{.;X;X}.XX XXX}. X:X-X}.XX XXX X}.<XXX.X X|.6X6X1 / t.y.r.<X7X",
"<Xr.y.w._ 1 4X-XX.:.7.&XX.w.q.q.q...l. Xq.q.:.q.q.&.D.{.q.q.q.q.q...!.E.:.q.q.q.q.| |.b.:.q.q.q.:...@Xk.q.q.X.;X7X1 / t.y.i.<X7X",
"<Xr.w.w./ 1 4X:XK.K.L.6XK.W.W.K.K.J.^.;XW.W.W.J.K.J.|.-XW.W.W.W.W.J.#X.XW.E.W.K.W.J.&X}.K.W.W.K.K.G.,X!.K.W.L.,X6X1 / y.y.e.>X7X",
"<Xr.w.w._ 1 :X9X4X].[._.{.^.).7X<X{.{.[.`.{.&X7X,X_.].].|.^.-X9X>X].].].{.].;X9XXX].].{.{.^.<X9X X]._.].].^.2X8X6X1 ) y.y.y.<X7X",
"<Xi.w.w./ 1 4X4X4XP.H.P.P.H./.2XD.>.,.,.p.,.l.[.P.p.p.,.,.>.z.).F.,.p.p.e.o.G.|.x.@.p.e.a.o.L.<X[.H.P.P.T.D.1X8X6X1 / y.y.r.>X).",
"<Xr.w.w./ 1 4X4X_.].].]._.T.(.*X&.! g h h d h d h x h h g D 2.A d x d d d x h s d x d h d c s @.'._._._.^.Y.2X8X5X1 / y.y.e.>X^.",
"<Xe.y.y./ 1 3X%Xo.X.X.o.X. .6.*X-.D & g g l j j g l g k 2 i 0.D x x d d x x f j x x x d x + 7 Y o.X.X.X. .{ =X8X6X< / q.y.e.<X7X",
"<Xi.y.i./ 1 5X:X].].{.]._.T.(.*X-.A 3 4.R i u a i i A 0.v a -.G p ) XX%XY p  .J o.H o.-XS S H.].].]._.'._.^.2X8X4X1 / w.y.e.<X7X",
"<Xu.y.y._ 1 4X:XE.E.!.<XW.W.W.D.M.[ 6 I j J J J Z C B C l v ~.a r V @. .S 4 U s { p ) { + p [.}.K.J.:X'.W.W.Q.6X7X1 / y.y.e.<XK.",
"<Xe.y.r._ > 4X;Xo.o.>.-X:.q.t.;.B.4.6 B t 9X9X6X_.#XC e v B OXu H V S n U n U n 4 H +Xr n ;  .F.:. .#Xs.q.q.:.-X4X< / r.y.r.<X{.",
"<Xe.y.y./ 1 3X4X X X.X7X.X X XQ.B.O.3 B t 9X&XP.].v.c p z M OXa 1 V +Xn U n U n s n U.t 7 I +X%X X|.<XXX X X|.6X4X1 / w.y.e.<X7X",
"<Xr.y.i./ 1 4X7X:XF.F.F.J.v.L.*XN.O.3 C t 6X^. Xx.f.m y z M oXi r U.5Xn % Z +Xt { t U Z.< 4 Z.9X].F.F.n.J.A.6X7X7X1 / w.y.e.>XF.",
"<Xe.i.y./ ; h.v.v.q.t.q.q.q.,.9.N.O.2 [ m w q q 5 5 g z O B R.[ R.9X5XU.{ oX8XZ.+XZ.+X5XZ.{ @X].r.q.q.q.q.:.c.A.C.; / w.y.i.<X.X",
"<Xr.y.y./ 1 {.}.q.y.y.e.y.y.e.<.B.4.3 4.R A C Z Z A g m b B ~.I.oXm.m.M.M.m.oX5XR.m.m.a.M.M.&Xx.q.y.y.y.y.t.y.]. X1 _ w.w.r.<X7X",
":Xr.y.y._ 1 <X<X-XXXXXXXXX-XXX^.B.O.3 O.z.&X&X&X&X-Xd.m * B ~.I.8X$X$X$X$X$X1X5X1X$X$X$X$X$X6X;XXXXXXX>XXXXXXX7X4X1 _ w.w.r.<X4X",
"<Xr.w.w._ > k.x.z.x.l.x.x.x.x.9.M.O.2 B.[.k.c.h.x.x.k.' q B OXC 6 8 7 7 8 8 7 8 6 8 7 7 7 8 6 [ x.x.z.l.x.x.x.x.s.> / w.w.r.<X7X",
"<Xr.y.w._ > :.&.%.*.*.*.*.*.*.#.N.O.2 S.*X-.,.3.3.3.3.7.l B oXR G 0 n +.8 i G G T 2 H { < l G [ *.*.*.*.*.*.%.%.o.> / y.y.r.<X7X",
"4Xe.y.y._ : &.&.#.#.[ #.#.#.$.[ N.4.3 =.>.&.&.&.&.&.&.=.k B /.#.4.u H +Xu v 4.#.4.5 { H.4 A *.#.#.$.#.#.#.$.$.%.;.> / y.w.r.<X7X",
"<Xr.y.y.q.P , - , - - : - : - q m.O.O - : : : > : : : : + V (.z - O H (.u O - - - O { I.0 * - - - - - - - - - : , P w.y.i.r.<X7X",
":Xd.e.i.u.u./ ) ( ) ) ) ( ( ' H * y ) ( ' ) ~ ) / ) ) ) ) m * z ' W j * m { ) ' ) ^ u * V ( ( ) ' ` / ' ) ) ) ) _ q.r.w.r.p.:X7X",
"l.,X,X>X,X;X-Xh.:X;X<X;X3X:X,X(.+.|.,X6X2X,X{.G.<X;X;X;X:X=X+XS.L.6X$X(.$X6XG.].:X;X@X[.=X;X6Xg.|.,X,X6X=X:Xs.-X;X<X:X:X:X3X6Xg.",
"1X5.6X6X1X6.4X4X;Xh.%XC.7X7X9X7X@XV.6X8X).V.7X4X[.H.[.H.9X9X7X7XD.Y.9X7XI.T.7X7XH.+XF.#X9X9X7X6Xg.&X8X6XV.#X4X9Xs.;Xa.:X7X7X7X,X"
};
