/* XPM */
static char *fc07c1570017484eefb0d29d238c7619[] = {
/* columns rows colors chars-per-pixel */
"64 64 191 2 ",
"   c #070C0E",
".  c #161616",
"X  c #181718",
"o  c #1B1B1A",
"O  c #2C1C14",
"+  c #231D1B",
"@  c #271C18",
"#  c #34241C",
"$  c #3B261B",
"%  c #252323",
"&  c #2A2928",
"*  c #332723",
"=  c #382D2A",
"-  c #3D312A",
";  c #383432",
":  c #3D3836",
">  c #3C3C3C",
",  c #4C230E",
"<  c #492614",
"1  c #43291B",
"2  c #4F2E1E",
"3  c #502F1F",
"4  c #57311E",
"5  c #64341C",
"6  c #6D391E",
"7  c #743A1D",
"8  c #432F27",
"9  c #493329",
"0  c #573728",
"q  c #443935",
"w  c #4D3831",
"e  c #563D35",
"r  c #633A27",
"t  c #663C2B",
"y  c #733D21",
"u  c #783F23",
"i  c #42403E",
"p  c #584139",
"a  c #794125",
"s  c #654437",
"d  c #744530",
"f  c #724B3B",
"g  c #3E4040",
"h  c #444343",
"j  c #4C4542",
"k  c #46494A",
"l  c #4A4B4A",
"z  c #5A4B45",
"x  c #5B4C46",
"c  c #4E5051",
"v  c #5A5552",
"b  c #5B5C5C",
"n  c #644D45",
"m  c #764D41",
"M  c #65534C",
"N  c #6D544C",
"B  c #735046",
"V  c #7D5244",
"C  c #7C5549",
"Z  c #6D5B54",
"A  c #795C53",
"S  c #6E605C",
"D  c #79625A",
"F  c #5C5F60",
"G  c #5F6061",
"H  c #646465",
"J  c #676767",
"K  c #6B6B6B",
"L  c #7D716D",
"P  c #6B6F71",
"I  c #747474",
"U  c #7A7775",
"Y  c #7A7C7C",
"T  c #89421F",
"R  c #834323",
"E  c #8C4725",
"W  c #8F4824",
"Q  c #83472D",
"!  c #954A25",
"~  c #9C4E26",
"^  c #944C29",
"/  c #9F5028",
"(  c #89553D",
")  c #935336",
"_  c #93563A",
"`  c #A04F27",
"'  c #A05027",
"]  c #A35229",
"[  c #AA5933",
"{  c #A85D3B",
"}  c #B65F37",
"|  c #B1633F",
" . c #835849",
".. c #8B5D4C",
"X. c #935E45",
"o. c #82655A",
"O. c #8C6558",
"+. c #936455",
"@. c #986858",
"#. c #AB6444",
"$. c #A76C58",
"%. c #AD715E",
"&. c #BA7B5D",
"*. c #987768",
"=. c #837975",
"-. c #9B7C72",
";. c #A26F60",
":. c #AF7462",
">. c #A87A64",
",. c #B37664",
"<. c #BC7B65",
"1. c #B67C6A",
"2. c #C3714F",
"3. c #C87858",
"4. c #C37E69",
"5. c #93837D",
"6. c #B78A79",
"7. c #C3826D",
"8. c #CB846E",
"9. c #D28468",
"0. c #C88773",
"q. c #CF8974",
"w. c #D58B75",
"e. c #DC8E75",
"r. c #D88E78",
"t. c #C3937B",
"y. c #DA9377",
"u. c #DD917B",
"i. c #E08F74",
"p. c #E7957B",
"a. c #E4957C",
"s. c #7B7F81",
"d. c #7E8283",
"f. c #858585",
"g. c #848788",
"h. c #86898A",
"j. c #8B8C8C",
"k. c #978B86",
"l. c #8E9192",
"z. c #929394",
"x. c #9B9795",
"c. c #9C9D9D",
"v. c #AA9089",
"b. c #A09E9D",
"n. c #B1A29A",
"m. c #9E9FA0",
"M. c #A2A3A3",
"N. c #ACACAC",
"B. c #B2A9A7",
"V. c #B5B0AE",
"C. c #B2B3B3",
"Z. c #B7B8B9",
"A. c #BCBCBC",
"S. c #CB9C86",
"D. c #D79B83",
"F. c #CA9F93",
"G. c #E79A83",
"H. c #EB9A82",
"J. c #F29E85",
"K. c #D3A99C",
"L. c #E6A18A",
"P. c #EFAA95",
"I. c #D0B5AA",
"U. c #C7B9B3",
"Y. c #F4B4A1",
"T. c #DDC0B7",
"R. c #E6C7B8",
"E. c #BFC0C1",
"W. c gray77",
"Q. c #C7C8C8",
"!. c #CBCBCC",
"~. c #D3CDCB",
"^. c #DAD1CD",
"/. c #D3D3D3",
"(. c #D9D7D6",
"). c #DCDDDD",
"_. c #EBCFC5",
"`. c #FBD8CE",
"'. c #E6DDD9",
"]. c #EAE0DB",
"[. c #FCE4DD",
"{. c #DFE0E0",
"}. c #E3E4E4",
"|. c #EBE6E3",
" X c #E9E8E7",
".X c #EBEBEB",
"XX c #F9EBE7",
"oX c #FBF2EE",
"OX c #F4F4F4",
"+X c #F8F7F6",
"@X c #FFFFFF",
/* pixels */
"@X@X@X@X@X@X@X@X@X@X@X@X@X@X@X@X@X@X@X@X@X@X@X@X@X@X@X@X@X@X@X@X@X@X@X@X@X@X@X@X@X@X@X@X@X@X@X@X@X@X@X@X@X@X@X@X@X@X@X@X@X@X@X@X",
"@X@X@X@X@X@X@X@X@X@X@X@X@X@X@X@X@X@X@X@X@X@X@X@X@X@X@X@X@X@X@X@X@X@X@X@X@X@X@X@X@X@X@X@X@X@X@X@X@X@X@X@X@X@X@X@X@X@X@X@X@X@X@X@X",
"@X@X@X@X@X@X@X@X@X@X@X@X@X@X@X@X@X@X@X@X@X@X@X@X@X@X@X@X@X@X@X@X@X@X@X@X@X@X@X@X@X@X@X@X@X@X@X@X@X@X@X@X@X@X@X@X@X@X@X@X@X@X@X@X",
"@X@X@X@X@X@X@X@X@X@X@X@X@X@X@X@X@X@X@X@X@X@X@X@X@X@X@X@X@X@X@X@X@X@X@X@X@X@X@X@X@X@X@X@X@X@X@X@X@X@X@X@X@X@X@X@X@X@X@X@X@X@X@X@X",
"@X@X@X@X@X@X@X@X@X@X@X@X@X@X@X@X@X@X@X@X@X@X@X@X@X@X@X@X@X@X@X@X@X@X@X@X@X@X@X@X@X@X@X@X@X@X@X@X@X@X@X@X@X@X@X@X@X@X@X@X@X@X@X@X",
"@X@X@X@X@X@X@X@X@X@X@X@X@X@X@X@X@X@X@X@X@X@X@X@X@X@X@X@X@X@X@X@X@X@X@X@X@X@X@X@X@X@X@X@X@X@X@X@X@X@X@X@X@X@X@X@X@X@X@X@X@X@X@X@X",
"@X@X@X@X@X@X@X@X@X@X@X@X@X@X@X@X@X@X@X@X@X@X@X@X@X@X@X@X@X@X@X@X@X@X@X@X@X@X@X@X@X@X@X@X@X@X@X@X@X@X@X@X@X@X@X@X@X@X@X@X@X@X@X@X",
"@X@X@X@X@X@X@X@X@X@X@X@X@X@X@X@X@X@X@X@X@X@X@X@X@X@X@X@X@X@X@X@X@X@X@X@X@X@X@X@XC.P ).@X@X@X@X@X@X@X@X@X@X@X@X@X@X@X@X@X@X@X@X@X",
"@X@X@X@X@X@X@X@X@X@X@X@X@X@X@X@X@X@X@X@X@X@X@X@X@X@X@Xm.G H J P OX@X@X@X@X@XA.F o.8 l }.@X@X@X@X@X@X@X@X@X@X@X@X@X@X@X@X@X@X@X@X",
"@X@X@X@X@X@X@X@X@X@X@X@X@X@X@X@X@X@X@X@X@X@X@X@X@XN.c O.%.%.Q 7 v K @X@X@XE.A :.C % C S }.@X@X@X@X@X@X@X@X@X@X@X@X@X@X@X@X@X@X@X",
"@X@X@X@X@X@X@X@X@X@X@X@X@X@X@X@X@X@X@X@X@X@X@XE.h o.<.e.C ) ] ~ R a h I Q.N w.J.q._ [ Q x  X@X@X@X@X@X@X@X@X@X@X@X@X@X@X@X@X@X@X",
"@X@X@X@X@X@X@X@X@X@X@X@X@X@X@X@X@X@X@X@X@X@XE.N 7.w.3.0 @.p E ] ] ~ y % M w.G.3.[ ] ~ 9 A.@X@X@X@X@X@X@X@X@X@X@X@X@X@X@X@X@X@X@X",
"@X@X@X@X@X@X@X@X@X@X@X@X@X@X@X@X@X@X@X@X@X/.M @.t [ r + ,.e.[ ~ ] W j V.e 9.] ] ` ] 3 N.@X@X@X@X@X@X@X@X@X@X@X@X@X@X@X@X@X@X@X@X",
"@X@X@X@X@X@X@X@X@X@X@X@X@X@X@X@X@X@X@X@X@X+XM.B 3.5 C e.i.| ~ ! ' W j C.w ^ ! E E E E p {.@X@X@X@X@X@X@X@X@X@X@X@X@X@X@X@X@X@X@X",
"@X@X@X@X@X@X@X@X@X@X@X@X@X@X@X@X@X@X@X@X+XN.B a.2./ 2 +.#.^ E 1 R / R M n.@ & j h q i ~.@X@X@X@X@X@X@X@X@X@X@X@X@X@X@X@X@X@X@X@X",
"@X@X@X@X@X@X@X@X@X@X@X@X@X@X@X@X@X@X@X@X}.Z <.3.~ ] 3 3 $ R # ) # ~ ' ] ] 5 I @X@X@X@X@X@X@X@X@X@X@X@X@X@X@X@X@X@X@X@X@X@X@X@X@X",
"@X@X@X@X@X@X@X@X@X@X@X@X@X@X@X@X@X@X@X@X@X).x R ] E 4 1 + 5 3 0.* y ] ` ! s M.@X@X@X@X@X@X@X@X@X@X@X@X@X@X@X@X@X@X@X@X@X@X@X@X@X",
"@X@X@X@X@X@X@X@X@X@X@X@X@X@X@X@X@X@X@X@X@X@X).M 6 t t ! 5 p #.3.@ p y ! < K @X@X@X@X@X@X@X@X@X@X@X@X@X@X@X@X@X@X@X@X@X@X@X@X@X@X",
"@X@X@X@X@X@X@X@X@X@X@X@X@X@X@X@X@X@X@X@X@X@X@XN.  ..v.n { p.p.d =.u.B s s.f.W.@X@X@X@X@X@X@X@X@X@X@X@X@X@X@X@X@X@X@X@X@X@X@X@X@X",
"@X@X@X@X@X@X@X@X@X@X@X@X@X@X@X@X@X@X@X@X@X@X@X).b t _.P $.H.a.:  XJ.7.: R.M.I @X@X@X@X@X@X@X@X@X@X@X@X@X@X@X@X@X@X@X@X@X@X@X@X@X",
"@X@X@X@X@X@X@X@X@X@X@X@X@X@Xc.K  X@X@X@X@X@X@X@Xm., r.x v.P.u.= K.G.9.Q e.-.I @X@X@X@X@X@X@X@X@X@X@X@X@X@X@X@X@X@X@X@X@X@X@X@X@X",
"@X@X@X@X@X@X@X@X@X@X@X@XN.b z.N.I J OX@X@X@X@X@X{.>.D.W.}.Y.a.,.u.H.8.f 4.S (.@X@X@X@X@X@X@X@X@X@X@X@X@X@X@X@X@X@X@X@X@X@X@X@X@X",
"@X@X@X@X@X@X@X@X@X@X@XC.& 2 n F._ @.S OX@X@X@X@X@Xx.@.XX@X7.s r.H.r.q o S ).@X@X@X@X@X@X@X@X@X@X@X@X@X@X@X@X@X@X@X@X@X@X@X@X@X@X",
"@X@X@X@X@X@X@X@X@X@X@Xj.< ] $ ,.i.p.1.G OX+X@X@X@X.Xt.s E.].0.e.{ z !./.).@X@X@X@X@X@X@X@X@X@X@X@X@X@X@X@X@X@X@X@X@X@X@X@X@X@X@X",
"@X@X@X@X@X@X@X@X@X@X@Xj.U XXv %.H.a.{ & g z t.+X+XOX|.(.J ( { 8 8 ~.+X@X@X@X@X@X@X@X@X@X@X@X@X@X@X@X@X@X@X@X@X@X@X@X@X@X@X@X@X@X",
"@X@X@X@X@X@X@X@X@X@X@Xc.o M.K 6.J.G.L.].}.}.V.; q : : q ; + a - a i G OX@X@X@X@X@X@X@X@X@X@X@X@X@X@X@X@X@X@X@X@X@X@X@X@X@X@X@X@X",
"@X@X@X@X@X@X@X@X@X@X@X@Xj.+ z.^.D.q.~.).+X[.G.u.u.u.u.8.^.F : C.v }.!.J .X@X@X@X@X X+X@X@X@X@X@X@X@X@X@X@X@X@X@X@X@X@X@X@X@X@X@X",
"@X@X@X@X@X@X@X@X@X@X@X@X@Xj.h j @.z j b ^.U.7.i.G.H.w.B E.+XOXz }.+X+XQ.P /.}.@X XI N.+X@X@X@X@X@X@X@X@X@X@X@X@X@X@X@X@X@X@X@X@X",
"@X@X@X@X@X@X@X@X@X@X@X@X@X@X@X@X@X@X@XoX>.c Z &.:.,.A Z.@X+XQ.#.R.@X+X@XW.k s.OXI N.b z.Q.@X@X@X@X@X@X@X@X@X@X@X@X@X@X@X@X@X@X@X",
"@X@X@X@X@X@X@X@X@X@X@X@X@X@X@X@X@X@X@X@X@X@X@XQ.b ; z.@X+X+X> 5 d N.A.@X+X@XC.g.g.l.Y b 8 B.+X@X@X@X@X@X@X@X@X@X@X@X@X@X@X@X@X@X",
"@X@X@X@X@X@X@X@X@X@X@X@X@X@X@X@X@X@X@X@X@X@X@X@X@Xg.j.@X@X@Xo.o . o P B.[.@X@XY -.-.I.R.S.& .X@X@X@X@X@X@X@X@X@X@X@X@X@X@X@X@X@X",
"@X@X@X@X@X@X@X@X@X@X@X@X@X@X@X@X@X@X@X@X@X@X@X@X@XE.g.l.h.T._.+.B ;  XL D n.R.-.<.H.p.2.k.z.OX@X@X@X@X@X@X@X@X@X@X@X@X@X@X@X@X@X",
"@X@X@X@X@X@X@X@X@X@X@X@X@X@X@X@X@X@X@X@X@X@X@X@X@X@XY 0  .f U A C c.@X.Xj.=.Q } 2.i.J.J.k.z.OX@X@X@X@X@X@X@X@X@X@X@X@X@X@X@X@X@X",
"@X@X@X@X@X@X@X@X@X@X@X@X@X@X@X@X@X@X@X@X@X@X@X@X@X@XP v.Y.%...% M.@X@X@X@X}.D *.<.a p s ].g .X@X@X@X@X@X@X@X@X@X@X@X@X@X@X@X@X@X",
"@X@X@X@X@X@X@X@X@X@X@X@X@X@X@X@X@X@X@X@X@X@X@X@X@X@X(.Y 6.J.H.= P +X@X@X@X@Xz.h.5.=.C.C.J & .X@X@X@X@X@X@X@X@X@X@X@X@X@X@X@X@X@X",
"@X@X@X@X@X@X@X@X@X@X@X@X@X@X@X@X@X@X@X@X@X@X@X@X@X@X@XK * w w o . J @X@X@X@X Xg.l.OX@X@X!.!.OX@X@X@X@X@X@X@X@X@X@X@X@X@X@X@X@X@X",
"@X@X@X@X@X@X@X@X@X@X@X@X@X@X@X@X@X@X@X@X@X@X@X@X@X@X@XK . o . X X X J @X@X@X@X X.X@X@X@X@X@X@X@X@X@X@X@X@X@X@X@X@X@X@X@X@X@X@X@X",
"@X@X@X@X@X@X@X@X@X@X@X@X@X@X@X@X@X@X@X@X@X@X@X@X+X+Xl.% b./.h o X . > OX@X@X@X@X@X@X@X@X@X@X@X@X@X@X@X@X@X@X@X@X@X@X@X@X@X@X@X@X",
"@X@X@X@X@X@X@X@X@X@X@X@X@X@X@X@X@X@X@X@X@X@X@XOXI.f c..Xt.z C.h X X @ b @X@X@X@X@X@X@X@X@X@X@X@X@X@X@X@X@X@X@X@X@X@X@X@X@X@X@X@X",
"@X@X@X@X@X@X@X@X@X@X@X@X@X@X@X@X@X@X@X@X@X@XI.( j.OXOX+XoX|.l N.= $ 6 c @X@X@X@X@X@X@X@X@X@X@X@X@X@X@X@X@X@X@X@X@X@X@X@X@X@X@X@X",
"@X@X@X@X@X@X@X@X@X@X@X@X@X@X@X@X@X@X@X@X+XU.I +X+X+X+X+XOXS.* o u y + J ).@X@X@X@X@X@X@X@X@X@X@X@X@X@X@X@X@X@X@X@X@X@X@X@X@X@X@X",
"@X@X@X@X@X@X@X@X@X@X@X@X@X@X@X@X@X@X@X@X].&.+X+X+X@XoX!.6.s w w 8 h h E.b @X@X@X@X@X@X@X@X@X@X@X@X@X@X@X@X@X@X@X@X@X@X@X@X@X@X@X",
"@X@X@X@X@X@X@X@X@X@X@X@X@X@X@X@X@X@X@X@X'.O.+X+X@X].6.m e q.J.p.| {.I c.U /.@X@X@X@X@X@X@X@X@X@X@X@X@X@X@X@X@X@X@X@X@X@X@X@X@X@X",
"@X@X@X@X@X@X@X@X@X@X@X@X@X@X@X@X@X@X@X@X XY B.`.`.L.( 6.,...+.+.S.+X(.l C.J @X@X@X@X@X@X@X@X@X@X@X@X@X@X@X@X@X@X@X@X@X@X@X@X@X@X",
"@X@X@X@X@X@X@X@X@X@X@X@X@X@X@X@X@X@X@X@X@X|.=.V m V  . .L d.& n z..X=.o.C.J @X@X@X@X@X@X@X@X@X@X@X@X@X@X@X@X@X@X@X@X@X@X@X@X@X@X",
"@X@X@X@X@X@X@X@X@X@X@X@X@X@X@X@X@X@X@X@X@X@X}.l.z.z.z.l.}.@Xh 0.O.K O &.C.J @X@X@X@X@X@X@X@X@X@X@X@X@X@X@X@X@X@X@X@X@X@X@X@X@X@X",
"@X@X@X@X@X@X@X@X@X@X@X@X@X@X@X@X@X@X@X@X@X@X@X@X@X@X@X@X@X@X..e.G...O <.C.H @X@X@X@X@X@X@X@X@X@X@X@X@X@X@X@X@X@X@X@X@X@X@X@X@X@X",
"@X@X@X@X@X@X@X@X@X@X@X@X@X@X@X@X@X@X@X@X@X@X@X@X@X@X@X@X@X@X_.B y.p.@.9 S K.@X@X@X@X@X@X@X@X@X@X@X@X@X@X@X@X@X@X@X@X@X@X@X@X@X@X",
"@X@X@X@X@X@X@X@X@X@X@X@X@X@X@X@X@X@X@X@X@X@X@X@X@X@X@X@X@X@X@XX.e.G.7.> ^.oX@X@X@X@X@X@X@X@X@X@X@X@X@X@X@X@X@X@X@X@X@X@X@X@X@X@X",
"@X@X@X@X@X@X@X@X@X@X@X@X@X@X@X@X@X@X@X@X@X@X@X@X@X@X@X@X@X@X@X'.z a.a.;.Y @X@X@X@X@X@X@X@X@X@X@X@X@X@X@X@X@X@X@X@X@X@X@X@X@X@X@X",
"@X@X@X@X@X@X@X@X@X@X@X@X@X@X@X@X@X@X@X@X@X@X@X@X@X@X@X@X@X@X@XOXq u.H.%.b @X@X@X@X@X@X@X@X@X@X@X@X@X@X@X@X@X@X@X@X@X@X@X@X@X@X@X",
"@X@X@X@X@X@X@X@X@X@X@X@X@X@X@X@X@X@X@X@X@X@X@X@X@X@X@X@X@X@X@XoX$.w.p.%.b @X@X@X@X@X@X@X@X@X@X@X@X@X@X@X@X@X@X@X@X@X@X@X@X@X@X@X",
"@X@X@X@X@X@X@X@X@X@X@X@X@X@X@X@X@X@X@X@X@X@X@X@X@X@X@X@X@X@X@X@X X9 9.( b @X@X@X@X@X@X@X@X@X@X@X@X@X@X@X@X@X@X@X@X@X@X@X@X@X@X@X",
"@X@X@X@X@X@X@X@X@X@X@X@X@X@X@X@X@X@X@X@X@X@X@X@X@X@X@X@X@X@X@X@XW.v t.E.k }.@X@X@X@X@X@X@X@X@X@X@X@X@X@X@X@X@X@X@X@X@X@X@X@X@X@X",
"@X@X@X@X@X@X@X@X@X@X@X@X@X@X@X@X@X@X@X@X@X@X@X@X@X@X@X@X@X@X@XA.p C.A.x.O K @X@X@X@X@X@X@X@X@X@X@X@X@X@X@X@X@X@X@X@X@X@X@X@X@X@X",
"@X@X@X@X@X@X@X@X@X@X@X@X@X@X@X@X@X@X@X@X@X@X@X@X@X@X@X@X@X@XA.0 T < 1 5 7 J @X@X@X@X@X@X@X@X@X@X@X@X@X@X@X@X@X@X@X@X@X@X@X@X@X@X",
"@X@X@X@X@X@X@X@X@X@X@X@X@X@X@X@X@X@X@X@X@X@X@X@X@X@X@X@X@X@X: 6.S.t.5 5 s N.@X@X@X@X@X@X@X@X@X@X@X@X@X@X@X@X@X@X@X@X@X@X@X@X@X@X",
"@X@X@X@X@X@X@X@X@X@X@X@X@X@X@X@X@X@X@X@X@X@X@X@X@X@X@X@X@X@Xb.g.g.g.f.f.N.@X@X@X@X@X@X@X@X@X@X@X@X@X@X@X@X@X@X@X@X@X@X@X@X@X@X@X",
"@X@X@X@X@X@X@X@X@X@X@X@X@X@X@X@X@X@X@X@X@X@X@X@X@X@X@X@X@X@X@XM.z.M.@X@X@X@X@X@X@X@X@X@X@X@X@X@X@X@X@X@X@X@X@X@X@X@X@X@X@X@X@X@X",
"@X@X@X@X@X@X@X@X@X@X@X@X@X@X@X@X@X@X@X@X@X@X@X@X@X@X@X@X@X@X@X@X@X@X@X@X@X@X@X@X@X@X@X@X@X@X@X@X@X@X@X@X@X@X@X@X@X@X@X@X@X@X@X@X",
"@X@X@X@X@X@X@X@X@X@X@X@X@X@X@X@X@X@X@X@X@X@X@X@X@X@X@X@X@X@X@X@X@X@X@X@X@X@X@X@X@X@X@X@X@X@X@X@X@X@X@X@X@X@X@X@X@X@X@X@X@X@X@X@X",
"@X@X@X@X@X@X@X@X@X@X@X@X@X@X@X@X@X@X@X@X@X@X@X@X@X@X@X@X@X@X@X@X@X@X@X@X@X@X@X@X@X@X@X@X@X@X@X@X@X@X@X@X@X@X@X@X@X@X@X@X@X@X@X@X",
"@X@X@X@X@X@X@X@X@X@X@X@X@X@X@X@X@X@X@X@X@X@X@X@X@X@X@X@X@X@X@X@X@X@X@X@X@X@X@X@X@X@X@X@X@X@X@X@X@X@X@X@X@X@X@X@X@X@X@X@X@X@X@X@X",
"@X@X@X@X@X@X@X@X@X@X@X@X@X@X@X@X@X@X@X@X@X@X@X@X@X@X@X@X@X@X@X@X@X@X@X@X@X@X@X@X@X@X@X@X@X@X@X@X@X@X@X@X@X@X@X@X@X@X@X@X@X@X@X@X"
};
