/* XPM */
static char *_5ea7a9eca7f4050f5e53e8a8106cd65[] = {
/* columns rows colors chars-per-pixel */
"64 64 216 2 ",
"   c #020000",
".  c #0C0101",
"X  c #0D0908",
"o  c #140000",
"O  c #1B0000",
"+  c #1D0F0F",
"@  c #1F1818",
"#  c #240000",
"$  c #2B0000",
"%  c #2B0D0D",
"&  c #330101",
"*  c #3B0000",
"=  c #3C0B0C",
"-  c #330B0C",
";  c #390F10",
":  c #291416",
">  c #3A1718",
",  c #290F10",
"<  c #2C211F",
"1  c #2C2B2B",
"2  c #3B2A2A",
"3  c #363434",
"4  c #430203",
"5  c #4B0102",
"6  c #4A0B0C",
"7  c #530001",
"8  c #5B0101",
"9  c #5B0A0C",
"0  c #550709",
"q  c #5C0F10",
"w  c #4A1A1B",
"e  c #461618",
"r  c #58181A",
"t  c #410F10",
"y  c #630202",
"u  c #6B0303",
"i  c #67080B",
"p  c #7D0B0D",
"a  c #790508",
"s  c #7B0E11",
"d  c #6A1213",
"f  c #65181A",
"g  c #711315",
"h  c #7A1215",
"j  c #741618",
"k  c #7A1A1B",
"l  c #78191B",
"z  c #630E11",
"x  c #481F20",
"c  c #551E23",
"v  c #6F1E21",
"b  c #482728",
"n  c #57292A",
"m  c #493636",
"M  c #543A3B",
"N  c #5B3A3A",
"B  c #583435",
"V  c #662929",
"C  c #772628",
"Z  c #652E30",
"A  c #693637",
"S  c #753638",
"D  c #772F30",
"F  c #52403E",
"G  c #733F40",
"H  c #4D4242",
"J  c #4A4848",
"K  c #594848",
"L  c #5D5453",
"P  c #5B5959",
"I  c #5E504F",
"U  c #6A4041",
"Y  c #62494C",
"T  c #7A4243",
"R  c #75484A",
"E  c #6C5B5B",
"W  c #675656",
"Q  c #735B5D",
"!  c #7A5556",
"~  c #7D4F51",
"^  c #725F60",
"/  c #6E6262",
"(  c #766363",
")  c #7C6364",
"_  c #756D6C",
"`  c #7C7373",
"'  c #74706F",
"]  c #8D0C0E",
"[  c #86090C",
"{  c #9D060A",
"}  c #9B0A0C",
"|  c #95090B",
" . c #880E11",
".. c #940E13",
"X. c #9B0D11",
"o. c #8B1214",
"O. c #87171A",
"+. c #941316",
"@. c #93191C",
"#. c #9A1316",
"$. c #A40305",
"%. c #A20609",
"&. c #A60609",
"*. c #A61418",
"=. c #A70C10",
"-. c #881E22",
";. c #982123",
":. c #853A3D",
">. c #803031",
",. c #912C2E",
"<. c #B52D30",
"1. c #C33437",
"2. c #8F3E41",
"3. c #AE3F41",
"4. c #CB3C40",
"5. c #984748",
"6. c #885B5B",
"7. c #965658",
"8. c #A54547",
"9. c #BA5559",
"0. c #B24B4E",
"q. c #9B5D60",
"w. c #AC5E61",
"e. c #836B6C",
"r. c #876262",
"t. c #966768",
"y. c #8C7576",
"u. c #8B7C7D",
"i. c #837776",
"p. c #987A7B",
"a. c #A96969",
"s. c #B9696D",
"d. c #A87878",
"f. c #B67576",
"g. c #D64648",
"h. c #C74D51",
"j. c #C75658",
"k. c #D55658",
"l. c #CC484C",
"z. c #E75255",
"x. c #C35E62",
"c. c #C96E72",
"v. c #C6767A",
"b. c #D57478",
"n. c #D5666A",
"m. c #E5676B",
"M. c #F17A7D",
"N. c #8A807F",
"B. c #D57F80",
"V. c #F97D80",
"C. c #8D8282",
"Z. c #998888",
"A. c #9B9192",
"S. c #A88788",
"D. c #B98688",
"F. c #A79797",
"G. c #B99696",
"H. c #AAA6A7",
"J. c #B9A8A8",
"K. c #BDB7B7",
"L. c #C68889",
"P. c #D48689",
"I. c #C38F91",
"U. c #C69898",
"Y. c #D99797",
"T. c #D68B90",
"R. c #E58487",
"E. c #FA8A8E",
"W. c #E88D91",
"Q. c #E79697",
"!. c #FE9A9B",
"~. c #D69EA1",
"^. c #C9A6A6",
"/. c #D5A6A8",
"(. c #DDAFB1",
"). c #C3BCBC",
"_. c #CAB8B8",
"`. c #D2BABB",
"'. c #D8B6B6",
"]. c #E9A7A8",
"[. c #F8A7A9",
"{. c #F8AEB1",
"}. c #E5B6B8",
"|. c #FEBABD",
" X c #F4B8B9",
".X c #D3BFC0",
"XX c #CCC7C6",
"oX c #DDCACB",
"OX c #D3C9C9",
"+X c #DED2D3",
"@X c #DCDADB",
"#X c #D3D3D3",
"$X c #DFCFD0",
"%X c #EBC3C3",
"&X c #E5C8C8",
"*X c #FFC3C4",
"=X c #F8CBCB",
"-X c #E4D2D2",
";X c #E5DCDB",
":X c #ECD7D6",
">X c #F3D3D3",
",X c #FFDCDC",
"<X c #F9D7D7",
"1X c #F1CFD0",
"2X c #EAE8E7",
"3X c #F5E4E4",
"4X c #FFE3E3",
"5X c #FEEBEB",
"6X c #F8EBEB",
"7X c #F6F6F6",
"8X c #FEF4F4",
"9X c #FCF9F7",
"0X c #FFF7F8",
"qX c #FFFFFF",
"wX c #F7F9F8",
"eX c #FFEFF0",
/* pixels */
"qXqXqXqXqXqXqXqXqXqXqXqXqXqXqXqXqXqXqXqXqXqXqXqXqXqXqXqXqX9XqXqXwXqXqXqXqXqXqXqXqXqXqXqXqXqXqXqXqXqXqXqXqXqXqXqXqXqXqXqXqXqXqXqX",
"qXqXqXqXqXqXqXqXqXqXqXqXqXqXqXqXqXqXqXqXqXqXqXqXqXqXwX9X9X9X9XqX0X0X9X9X9XqXqXqXqXqXqXqXqXqXqXqXqXqXqXqXqXqXqXqXqXqXqXqXqXqXqXqX",
"qXqXqXqXqXqXqXqXqXqXqXqXqXqXqXqXqXqXqXqXqXqXqXqXqXqXqX9XD.Z B n Z t.9X9X0XqX9XqXqXqXqXqXqXqXqXqXqXqXqXqXqXqXqXqXqXqXqXqXqXqXqXqX",
"qXqXqXqXqXqXqXqXqXqXqXqXqXqXqXqXqXqXqXqXqXqXqXqX0X9X^ N q.D = = 6 r N K ) 4X9X9XwXqXqXqXqXqXqXqXqXqXqXqXqXqXqXqXqXqXqXqXqXqXqXqX",
"qXqXqXqXqXqXqXqXqXqXqXqXqXqXqXqXqXqXqXqXqXqXqXqX8X) R T :.s.~.^.^.U.d.R r S q.%XwXwXqXqXqXqXqXqXqXqXqXqXqXqXqXqXqXqXqXqXqXqXqXqX",
"qXqXqXqXqXqXqXqXqXqXqXqXqXqXqXqXqXqXqXqXqX0XqX3XS.S P.|.T. X0X0X9X9X9X~.D.a.n U _.wXqXqXqXqXqXqXqXqXqXqXqXqXqXqXqXqXqXqXqXqXqXqX",
"qXqXqXqXqXqXqXqXqXqXqXqXqXqXqXqXqXqXqXqXqXqXqX>X5 R.w.*X7X0X0X0X9X9X4XI.5X9X(.> / qXwXqXqXqXqXqXqXqXqXqXqXqXqXqXqXqXqXqXqXqXqXqX",
"qXqXqXqXqXqXqXqXqXqXqXqXqXqXqXqXqXqXqXqXqX0X6XU.C b.O.{.0XwXqX9X9X9X5XI.3X9X9X_ H OXwXqXqXqXqXqXqXqXqXqXqXqXqXqXqXqXqXqXqXqXqXqX",
"qXqXqXqXqXqXqXqXqXqXqXqXqXqXqXqXqXqXqXqXqXqX`.r E.R.-.{.8XqXqX9X9X9X<X/.5XqX9XJ.< J qX9XqXqXqXqXqXqXqXqXqXqXqXqXqXqXqXqXqXqXqXqX",
"qXqXqXqXqXqXqXqXqXqXqXqXqXqXqXqXqXqXqXqXqX9X_.4 M.m.@.{.eX3X1X-X>X%XY.4X9X9XeXqXN.H qXqXqXqXqXqXqXqXqXqXqXqXqXqXqXqXqXqXqXqXqXqX",
"qXqXqXqXqXqXqXqXqXqXqXqXqXqXqXqXqXqXqXqXqXqX_.& n.*.] !.,Xd.V S S S B.=X,XeX9X2X' P qX9XqXqXqXqXqXqXqXqXqXqXqXqXqXqXqXqXqXqXqXqX",
"qXqXqXqXqXqXqXqXqXqXqXqXqXqXqXqXqXqXqXqXwXqX).# O.} o.-.C P.,X<X,X|.C D A }.9XE P 7X9XqXqXqXqXqXqXqXqXqXqXqXqXqXqXqXqXqXqXqXqXqX",
"qXqXqXqXqXqXqXqXqXqXqXqXqXqXqXqXqXqXqXqX9XqX).O v O.O.9.{.4XeX0X9X8X1X1X=Xr.U % _ 9XwXqXqXqXqXqXqXqXqXqXqXqXqXqXqXqXqXqXqXqXqXqX",
"qXqXqXqXqXqXqXqXqXqXqXqXqXqXqXqXqXqXqXqX9XqXXXO & 5 5 0 D.].%X8X9X9X9X8X9X%X%XN E qXwXqXqXqXqXqXqXqXqXqXqXqXqXqXqXqXqXqXqXqXqXqX",
"qXqXqXqXqXqXqXqXqXqXqXqXqXqXqXqXqXqXqX9XqX+XK % G.# 4 q e e q.|.}.}.}.5X8XeXeX1X` N.qX9XqXqXqXqXqXqXqXqXqXqXqXqXqXqXqXqXqXqXqXqX",
"qXqXqXqXqXqXqXqXqXqXqXqXqXqXqXqXqXqX9XqXOXF 2 G.&XF.~.V r.G d ,.l v S }.%X%X`.:X/ 3 qXwXqXqXqXqXqXqXqXqXqXqXqXqXqXqXqXqXqXqXqXqX",
"qXqXqXqXqXqXqXqXqXqXqXqXqXqXqXqXqXqX9X`.m . I 8X! 8X8X: ^.{.8.@.8 8 7 C A U N m K H.qXqXqXqXqXqXqXqXqXqXqXqXqXqXqXqXqXqXqXqXqXqX",
"qXqXqXqXqXqXqXqXqXqXqXqXqXqXqXqXqX9X9XJ.e.H < A.S.S.2XC.U.].!.E.<.@.3.C V $ N W J.qXwXqXqXqXqXqXqXqXqXqXqXqXqXqXqXqXqXqXqXqXqXqX",
"qXqXqXqXqXqXqXqXqXqXqXqXqXqXqXqXqXqXqXqXqXOX3 X H.  @X0X].c.[.|.m.<.M.E.Q.= J.wXqX9XqXqXqXqXqXqXqXqXqXqXqXqXqXqXqXqXqXqXqXqXqXqX",
"qXqXqXqXqXqXqXqXqXqXqXqXqXqXqXqXqXqXqXqXwXqX@X3 1 J H.5X*XW.c.9.m.E.M.n.a.B K.9XwXqXqXqXqXqXqXqXqXqXqXqXqXqXqXqXqXqXqXqXqXqXqXqX",
"qXqXqXqXqXqXqXqXqXqXqXqXqXqXqXqXqXqXqXqXqXqXwXqXqX@X3 F.>X].5.i <.m.x.r > $XqXwX9X9XqXqXqXqXqXqXqXqXqXqXqXqXqXqXqXqXqXqXqXqXqXqX",
"qXqXqXqXqXqXqXqXqXqXqXqXqXqXqXqXqXqXqXqXqXqXqXqX#X1 @XP O ~ P.b.9.s 7 5 }.2XeXqXqXqXqXqXqXqXqX9XqXqXqXqXqXqXqXqXqXqXqXqXqXqXqXqX",
"qXqXqXqXqXqXqXqXqXqXqXqXqXqXqXqXqXqXqXqXqXwXqXOX1 @XwX6XK n T 4 4 8 b.b.r x '.eXeX0XqXqXqXqXqXqXqXqXqXqXqXqXqXqXqXqXqXqXqXqXqXqX",
"qXqXqXqXqXqXqXqXqXqXqXqXqXqXqXqXqXqXqXqXqXqXXX3 @XqXqXY F.(.B.:.4 D.R.R.4 7.S w G.9X9XqXqXqXqXqXqXqXqXqXqXqXqXqXqXqXqXqXqXqXqXqX",
"qXqXqXqXqXqXqXqXqXqXqXqXqXqXqXqXqXqXqXqXwXqX.X. K 8XqX@ H.=Xb.B.7.A P.f * s.c.s.T t.qX7XqXqXqXqXqXqXqXqXqXqXqXqXqXqXqXqXqXqXqXqX",
"qXqXqXqXqXqXqXqXqXqXqXqXqXqXqXqXqXqXqXwXqX.Xb x t U 5X-X( t.Q.c.e # f y z d x.W.f.A ` qXqXqXqXqXqXqXqXqXqXqXqXqXqXqXqXqXqXqXqXqX",
"qXqXqXqXqXqXqXqXqXqXqXqXqXqXqXqXqXqXqX0X'.p.e.t l 8 T e.: , U x o $ y o.O.5 0.P.{./.N u.7X9XqXqXqXqXqXqXqXqXqXqXqXqXqXqXqXqXqXqX",
"qXqXqXqXqXqXqXqXqXqXqXqXqXqXqXqXqXqXwX9Xp.W <X$ o.+.8 4 # . . . . $ O...] a C P.|.=XG.o 9X9XqXqXqXqXqXqXqXqXqXqXqXqXqXqXqXqXqXqX",
"qXqXqXqXqXqXqXqXqXqXqXqXqXqXqXqXqXqX9XoXy.G..X# o.%.=.-.= o .     # i  .} #.4 t.<X^.y.e.I.U.3XqXqXqXqXqXqXqXqXqXqXqXqXqXqXqXqXqX",
"qXqXqXqXqXqXqXqXqXqXqXqXqXqXqXqXqX9X9X( ( 9XOXA O.%.&.X.4 o .     o *  .%.X.5 Z G.p._ 9X~ = >XqXqXqXqXqXqXqXqXqXqXqXqXqXqXqXqXqX",
"qXqXqXqXqXqXqXqXqXqXqXqXqXqXqXqXqX9X>Xr.C.0XqX,Xg | &.} y $ o     . & s { { y 9 4 ! qXqX9XK ^.5X9XqXqXqXqXqXqXqXqXqXqXqXqXqXqXqX",
"qXqXqXqXqXqXqXqXqXqXqXqXqXqXqXqX9XqXQ S.qXwXqX&X4 [ %.{ O.5 o     . & j } { o.8 * t.0XwX9X9XM _.qXqXqXqXqXqXqXqXqXqXqXqXqXqXqXqX",
"qXqXqXqXqXqXqXqXqXqXqXqXqXqXqXqXqXqXH ` 2X2XqX-X* s { $.+.7 o     . # f | { +.8 & ~ 8X8XqX2X3 ).9XqXqXqXqXqXqXqXqXqXqXqXqXqXqXqX",
"qXqXqXqXqXqXqXqXqXqXqXqXqXqXqXqXwXqXP X + Q 9X&X* s { %...8 o       o * [ } +.8 D I./.8X;X1 XX9XqXqXqXqXqXqXqXqXqXqXqXqXqXqXqXqX",
"qXqXqXqXqXqXqXqXqXqXqXqXqXqXqXqXqXwX2XL n t.> ; 4 h { %...8 o         # p X.O.7 >.T.T.D.2 XXqXqXqXqXqXqXqXqXqXqXqXqXqXqXqXqXqXqX",
"qXqXqXqXqXqXqXqXqXqXqXqXqXqXqXqXqXwXqX( Z L.t.6.* l ..X.+.7 O X .   . O z p W.s.0 V C c .XqXqX9XqXqXqXqXqXqXqXqXqXqXqXqXqXqXqXqX",
"qXqXqXqXqXqXqXqXqXqXqXqXqXqXqXqXqXwXqX( w }.(.b $ q s p s 5 o . O x x # ^.*Xa.S e O > _.qXqXqXqXqXqXqXqXqXqXqXqXqXqXqXqXqXqXqXqX",
"qXqXqXqXqXqXqXqXqXqXqXqXqXqXqXqXqXqXA.Y S.4X`.o - Y.].[.{.5.T ^.d.= 4 $ R r.c 4 - b ).qX9XqXqXqXqXqXqXqXqXqXqXqXqXqXqXqXqXqXqXqX",
"qXqXqXqXqXqXqXqXqXqXqXqXqXqXqXqXwXqXM F <X9X.X. - d.d.d.f.:.8.Q.a.& 8 8 4 & u j # E qXwXqXqXqXqXqXqXqXqXqXqXqXqXqXqXqXqXqXqXqXqX",
"qXqXqXqXqXqXqXqXqXqXqXqXqXqXqXqXqX0XW < ( Z.F.y.y.O $ * 4 y [ [ 9 5 o.+.C 5 i 8.x F 9XwXqXqXqXqXqXqXqXqXqXqXqXqXqXqXqXqXqXqXqXqX",
"qXqXqXqXqXqXqXqXqXqXqXqXqXqXqXqXqXqXL 1 L 2 m oX0X; j @.#.} $.+. .u { | O.5 4 T W C.qX9XqXqXqXqXqXqXqXqXqXqXqXqXqXqXqXqXqXqXqXqX",
"qXqXqXqXqXqXqXqXqXqXqXqXqXqXqXqX0XqXJ / 1XS.$ > J.- a &.$.$.| [ [ o.{ $.o.7 $ % Z.qX9XqXqXqXqXqXqXqXqXqXqXqXqXqXqXqXqXqXqXqXqXqX",
"qXqXqXqXqXqXqXqXqXqXqXqXqXqXqXqXwXqXK o & 7 -.C O # s %.$.} a 7 8 o.%.$.} y * D.9X7XqXqXqXqXqXqXqXqXqXqXqXqXqXqXqXqXqXqXqXqXqXqX",
"qXqXqXqXqXqXqXqXqXqXqXqXqXqXqXqXqXqX^ ; v l 8.s.: # p %.$.{ j 9 0 h } $.%.o.q G.9XqXqXqXqXqXqXqXqXqXqXqXqXqXqXqXqXqXqXqXqXqXqXqX",
"qXqXqXqXqXqXqXqXqXqXqXqXqXqXqXqXqX8XeXp.r a./.b $X- a %.&.#.7 ~ '.* | &.$.+.4 Z.qXqXqXqXqXqXqXqXqXqXqXqXqXqXqXqXqXqXqXqXqXqXqXqX",
"qXqXqXqXqXqXqXqXqXqXqXqXqXqXqXqXqXqX0X5Xp.$ I ;X6X= a =.$.#.4 ! $X# +.$.&.+.* Z.qXwXqXqXqXqXqXqXqXqXqXqXqXqXqXqXqXqXqXqXqXqXqXqX",
"qXqXqXqXqXqXqXqXqXqXqXqXqXqXqXqXqXqXqXqX3X).OXqX4X5 j.*.g.1.4 Q OX# @.z.=.k.r N.qX0XqXqXqXqXqXqXqXqXqXqXqXqXqXqXqXqXqXqXqXqXqXqX",
"qXqXqXqXqXqXqXqXqXqXqXqXqXqXqXqXqXqXqXqXqXqXqX3Xr.g ;.z.1.j.Z Y &X$ O.<.z.3.4 N.0XwXqXqXqXqXqXqXqXqXqXqXqXqXqXqXqXqXqXqXqXqXqXqX",
"qXqXqXqXqXqXqXqXqXqXqXqXqXqXqXqXqXqXqXqXqXwXqX-X4 k l.1.l.8.~ _.'.6 o.| <.k.d L.9XwXqXqXqXqXqXqXqXqXqXqXqXqXqXqXqXqXqXqXqXqXqXqX",
"qXqXqXqXqXqXqXqXqXqXqXqXqXqXqXqXqXqXqXqXqXqXqX$X* s 1.1.h.0 ) 0X<Xf.u ..1.l.h.7.J.qXqXqXqXqXqXqXqXqXqXqXqXqXqXqXqXqXqXqXqXqXqXqX",
"qXqXqXqXqXqXqXqXqXqXqXqXqXqXqXqXqXqXqXqXqXqXqX-X* h 1.g.h.9 ) wXqX>X*  .g.=.4.q Q qXqXqXqXqXqXqXqXqXqXqXqXqXqXqXqXqXqXqXqXqXqXqX",
"qXqXqXqXqXqXqXqXqXqXqXqXqXqXqXqXqXqXqXqXqXqXqX+X# l k.#.9.f E qXqX$X& s | { o.5 e.qXwXqXqXqXqXqXqXqXqXqXqXqXqXqXqXqXqXqXqXqXqXqX",
"qXqXqXqXqXqXqXqXqXqXqXqXqXqXqXqXqXqXqXqXqXqXqX;XB r  .+.f w A.qXqX$X$ j } %.@.5 ( qXwXqXqXqXqXqXqXqXqXqXqXqXqXqXqXqXqXqXqXqXqXqX",
"qXqXqXqXqXqXqXqXqXqXqXqXqXqXqXqXqXqXqXqXqXqXqXqX5X= 8 g & S.qXwXqX;Xw f o.X.k 6 p.qXqXqXqXqXqXqXqXqXqXqXqXqXqXqXqXqXqXqXqXqXqXqX",
"qXqXqXqXqXqXqXqXqXqXqXqXqXqXqXqXqXqXqXqXqXqXqXwX-X, , > o Z.qXwXqXqX3X; q v & Z.qXwXqXqXqXqXqXqXqXqXqXqXqXqXqXqXqXqXqXqXqXqXqXqX",
"qXqXqXqXqXqXqXqXqXqXqXqXqXqXqXqXqXqXqXqXqXqXqX@X+ o `.5Xm y.qXwXqX9X3X- & * O Z.9XwXqXqXqXqXqXqXqXqXqXqXqXqXqXqXqXqXqXqXqXqXqXqX",
"qXqXqXqXqXqXqXqXqXqXqXqXqXqXqXqXqXqXqXqXqXwXqX-X# c T c c t u.qXqX-Xw r r ~.(.B N.qXwXqXqXqXqXqXqXqXqXqXqXqXqXqXqXqXqXqXqXqXqXqX",
"qXqXqXqXqXqXqXqXqXqXqXqXqXqXqXqXqXqXqXqXqXqXOX2 r 4 * 0 C * ( qXqX-X# f 5 :.S # . ` qXqXqXqXqXqXqXqXqXqXqXqXqXqXqXqXqXqXqXqXqXqX",
"qXqXqXqXqXqXqXqXqXqXqXqXqXqXqXqXqXqXqXqXqXqX).O V Q.].S e O / qXqX+XO V f 5 5 q.^.C.' qXqXqXqXqXqXqXqXqXqXqXqXqXqXqXqXqXqXqXqXqX",
"qXqXqXqXqXqXqXqXqXqXqXqXqXqXqXqXqXqXqXqXwXqXK.O d.|.*XI.- K OXwXqX6XS.- * 6 7./.<Xi.@ qXqXqXqXqXqXqXqXqXqXqXqXqXqXqXqXqXqXqXqXqX",
"qXqXqXqXqXqXqXqXqXqXqXqXqXqXqXqXqXqXqXqXqXqX;X` N n n M Q OXqXqXqXqXqXC.p.< n B b K H.0XqXqXqXqXqXqXqXqXqXqXqXqXqXqXqXqXqXqXqXqX",
"qXqXqXqXqXqXqXqXqXqXqXqXqXqXqXqXqXqXqXqXqXqXqXeX^ Q ( W +XqXwXqXqXqXwXqXqXZ.E Q E F.qXwXqXqXqXqXqXqXqXqXqXqXqXqXqXqXqXqXqXqXqXqX",
"qXqXqXqXqXqXqXqXqXqXqXqXqXqXqXqXqXqXqXqXqXqXqX0XqXqXqXqXqXqXqXqXqXqXqXqX9XqXqXqXqXqXwXqXqXqXqXqXqXqXqXqXqXqXqXqXqXqXqXqXqXqXqXqX",
"qXqXqXqXqXqXqXqXqXqXqXqXqXqXqXqXqXqXqXqXqXqXqXqXwXwXqXwXqXqXqXqXqXqXqXqXqX9XwXwXwXqXqXqXqXqXqXqXqXqXqXqXqXqXqXqXqXqXqXqXqXqXqXqX"
};
