/* XPM */
static char *_2bc04ebaf9744d1a4d2f8876fb51851[] = {
/* columns rows colors chars-per-pixel */
"64 64 235 2 ",
"   c #050603",
".  c #18160A",
"X  c #191B14",
"o  c #13110A",
"O  c #241D16",
"+  c #231E0F",
"@  c #1D2418",
"#  c #24241B",
"$  c #282719",
"%  c #332B1A",
"&  c #2F2F1A",
"*  c #2C2E22",
"=  c #262821",
"-  c #332C24",
";  c #2C3324",
":  c #2A3427",
">  c #333424",
",  c #343C2C",
"<  c #3C3C2C",
"1  c #383726",
"2  c #343E31",
"3  c #3B3F34",
"4  c #2E3531",
"5  c #463A2A",
"6  c #483D34",
"7  c #553D2C",
"8  c #533827",
"9  c #3A422D",
"0  c #364131",
"q  c #3A4433",
"w  c #3D4936",
"e  c #3E4A39",
"r  c #3C443B",
"t  c #47452E",
"y  c #56462C",
"u  c #424D3B",
"i  c #484935",
"p  c #584935",
"a  c #45523D",
"s  c #4B543D",
"d  c #4D5438",
"f  c #57573A",
"g  c #5A552E",
"h  c #664B36",
"j  c #68583A",
"k  c #765A3D",
"l  c #724738",
"z  c #68623D",
"x  c #78623E",
"c  c #5D623C",
"v  c #454D45",
"b  c #4B5542",
"n  c #4D5B44",
"m  c #495647",
"M  c #525D44",
"N  c #565B47",
"B  c #4C5658",
"V  c #56544F",
"C  c #685947",
"Z  c #765B46",
"A  c #72514C",
"S  c #55624B",
"D  c #5B654C",
"F  c #5A6448",
"G  c #5D6B52",
"H  c #576457",
"J  c #676849",
"K  c #796748",
"L  c #76734C",
"P  c #616E54",
"I  c #696D53",
"U  c #7B6556",
"Y  c #647155",
"T  c #667459",
"R  c #6B795C",
"E  c #6B7557",
"W  c #747C5A",
"Q  c #757755",
"!  c #6A724D",
"~  c #51586F",
"^  c #5D6868",
"/  c #6D7B63",
"(  c #727D64",
")  c #6E706B",
"_  c #725F61",
"`  c #544642",
"'  c #89534C",
"]  c #87694B",
"[  c #896954",
"{  c #966A57",
"}  c #897655",
"|  c #947454",
" . c #9C7A5B",
".. c #977858",
"X. c #8F714E",
"o. c #A27C5C",
"O. c #A57A5A",
"+. c #A7685E",
"@. c #8B7969",
"#. c #9A7A64",
"$. c #99746B",
"%. c #A37C63",
"&. c #A87966",
"*. c #B0756D",
"=. c #A25E5B",
"-. c #C9787B",
";. c #854040",
":. c #78825E",
">. c #748364",
",. c #7C8B6B",
"<. c #798667",
"1. c #7B8777",
"2. c #7A8D6B",
"3. c #98825B",
"4. c #878659",
"5. c #A4825D",
"6. c #AB845E",
"7. c #B1845F",
"8. c #848C68",
"9. c #998667",
"0. c #83916E",
"q. c #8B966D",
"w. c #849472",
"e. c #8D9D7A",
"r. c #899875",
"t. c #949C76",
"y. c #918E71",
"u. c #A48363",
"i. c #AA8363",
"p. c #AB8A65",
"a. c #AB846B",
"s. c #AC8A6B",
"d. c #A58769",
"f. c #B38B6C",
"g. c #B68968",
"h. c #AA926A",
"j. c #B7956C",
"k. c #AD8B72",
"l. c #A98976",
"z. c #B38C73",
"x. c #BB8D73",
"c. c #B88977",
"v. c #AC9576",
"b. c #B49174",
"n. c #BB9373",
"m. c #BC9B73",
"M. c #BB957B",
"N. c #B8987A",
"B. c #95A27D",
"V. c #8CA07B",
"C. c #B2A577",
"Z. c #C2936D",
"A. c #C39473",
"S. c #C3947C",
"D. c #C49B7C",
"F. c #C69B79",
"G. c #C18B78",
"H. c #C6A47B",
"J. c #D3A67F",
"K. c #2E3786",
"L. c #3D448B",
"P. c #49508C",
"I. c #70778E",
"U. c #5D6798",
"Y. c #937A80",
"T. c #7C858B",
"R. c #8B9A85",
"E. c #959C87",
"W. c #8C8B95",
"Q. c #8D8C9B",
"!. c #868693",
"~. c #928E99",
"^. c #8E9396",
"/. c #93939C",
"(. c #9A9B9B",
"). c #979598",
"_. c #8E898A",
"`. c #B89885",
"'. c #AC948C",
"]. c #9AAA85",
"[. c #99A885",
"{. c #9DA499",
"}. c #95A886",
"|. c #A6B38C",
" X c #AAB996",
".X c #B3BC95",
"XX c #A6A890",
"oX c #9494A2",
"OX c #9B9BA3",
"+X c #999AA7",
"@X c #8D92A2",
"#X c #A6A9A7",
"$X c #B1B4AF",
"%X c #9CA3A9",
"&X c #C49C83",
"*X c #C89A85",
"=X c #D78387",
"-X c #CCA58B",
";X c #C9A486",
":X c #D4A98C",
">X c #D3A688",
",X c #CBA894",
"<X c #D4AB93",
"1X c #D8AC98",
"2X c #DAB399",
"3X c #DAB38F",
"4X c #E2B498",
"5X c #DAB4A3",
"6X c #C9BCB6",
"7X c #E4B7A7",
"8X c #B9C49B",
"9X c #BFC78E",
"0X c #B8C7A5",
"qX c #BAC8B5",
"wX c #C6CC99",
"eX c #C3CCA5",
"rX c #C9D4A8",
"tX c #D3DCAA",
"yX c #C6CCBB",
"uX c #CBD7B5",
"iX c #D3DCB2",
"pX c #DADCB6",
"aX c #D1CEBF",
"sX c #D9E4B3",
"dX c #E0E9BC",
"fX c #BDC3C3",
"gX c #C5CBC2",
"hX c #D0D7C3",
"jX c #E7EDC5",
"kX c #ECF3D4",
"lX c #F5F9E7",
"zX c #FCFEF4",
"xX c #FEFEFD",
"cX c #EFF7E0",
"vX c #D9E4CA",
/* pixels */
"iXpXjXjXkXlXzXzXxXxXxXxXxXxXxXxXxXxXxXxXxXxXxXzXxXzXkXeXB.:.:.>.T T T T T T Y G Y G D S S S n s n a a a w e w w w e e a a v b n ",
"8X8X.X.X.X.X.X8X8XrXiXvXkXcXlXzXzXzXxXxXxXxXxXxXxXzXlXvXB.Y G G Y Y G G G S S S n a a a a w w w e w w w a b n G G Y T R R R / >.",
"].[.}.e.r.e.r.r.q.r.q.q.q.q.t.XX|..X8XrXhXjXcXlXlXjXrXt.! d s n n n n b a a u u e a v m n n n n S G G Y >.>.2.w.V.V.r.e.w.1.2.2.",
"w.w.w.w.w.r.w.w.w.0.0.0.8.8.( ( :.:.R :.E Q R W Q I F d e e e a a n n n n n S S G Y R >.>.2.2.2.<.2.2.2.2.r.V.B.}.V.e.2.,.<.>.>.",
",.,.,.2.<.<.<.>.>.>.W R T Y Y Y Y G G G D S G S N F S D G G Y T >.>.>.>.>.2.2.>.,.0.w.e.V.e.w.2.2.<.<.2.2.2.0.0.w.w.w.2.,.<.( ( ",
"( / R R R T Y Y P G G S n M S G P Y T R :.>.>.2.2.,.2.2.2.w.e.B.V.B.r.r.2.2.2.2.<.2.,.,.<.<./ T Y P Y T R W R :.:.:.2.2.,.w.1.w.",
"Y Y Y P Y T R R R R T G G Y ( <.2.w.r.V.V.}.].}.].B.V.V.V.V.e.e.r.V.t.w.,.,.,.<.( / P G H S M S S S G Y E >.:.>.2.0.1.V.V.2.w.r.",
">.>.>.2.2.,.w.r.V.e.r.w.w.e.].].|.].].}.].|.|.].B.r.w.2.<.<.:.8.0.:.W W W Q Q E Q Q E E P H M D S G P T R >.<.0.e.B.}.|.|.|.].{.",
"V.}.B.}.}.].].|.|.|.].}.].|.|.|.|.}.V.e.e.w.w.8.>.R R I E Q } W ! d i N v b d i d M f D I I Q W E Y T W ( ,.8.r.B.|. X0X8X0X0X0X",
"|.|.|.}.].].].}.].].V.V.V.B.}.B.B.e.r.q.0.,.<.,.<.>.:.W 4.:.I i t , < 1 > > < 3 q > i D i i F J W Q :.8.8.8.w.e.]..X0X0X0X0XqXhX",
"B.}.}.R.R.R.R.V.r.1.1.>./ ( >.>.2.,.2.2.,.0.w.r.e.t.t.:.D f i * = * * * : , < a s v q t > t b i F ! ! W 8.8.8.w.B.|. X X X0XqXqX",
"V.}.R.R.}.R.R.R.1.) ^ H S n M S G G G G Y E W ,.8.8.J t ; = 4 = # $ * * > * > = > i V i s a < i d F c c F W q.q.B.|. X0XqXqXhXvX",
"0X0X0XuXiXuXuXrX0X}./ B v v e v a a a w q f ! Q L f < ; @ @ # = # = = = - 6 , 1 * # # * u 9 q > * < M N c c 4.dXcXlXzXxXxXxXxXxX",
"kXkXkXkXkXkXcXkXvX0X1.H m m n S S G S m a J Q J t ; = X X o O 6 C C C [ U [ } [ Z C C p 6 * X @ O $ t i i d d $XxXxXxXxXxXxXxXxX",
"zXzXzXzXzXzXlXkXvXrX1.R T >.>.>.>.>.R Y ! Q F 1 = @ X @ X - h [ #.O.&.&.g.7.7.7.s.p.h.h.9.} f 5 > 6 1 6 t 1 i i XXzXxXxXxXxXxXxX",
"xXzXzXzXlXcXkXjXiX X1.2.2.1.2.2.w.,.:.W Q F t * # + # 5 y ] o.O.O.g.Z.Z.j.n.g.g.j.n.m.m.C.H.v.} L Z f i t i 9 i d y.pXjXjXuXR.R ",
"kXjXvXjXdXdXdXsXrX].w.w.w.r.2.w.2.>.W Q J 9 > # & 5 j X. .6.6.7.g.Z.A.A.A.A.A.A.j.m.F.H.H.H.H.m.m.d.Q j p t i i N f L 9.q.h.J 9 ",
"kXkXcXcXcXlXzXzXzXlX X<.2.>.>.R Y J ! ! p $ $ % y K | 5.7.g.x.Z.A.S.F.*X>XS.F.F.F.F.A.n.C.H.H.H.H.m.3.C i < t 9 i i i J L 4.! 9 ",
"zXxXxXxXxXxXxXxXzXzXvXG S S b a M ! ! z > O $ i x | 5.g.Z.j.F.J.>X>X-X>X>X>X-X;X;XF.n.n.m.F.H.m.m.C.h.K p 1 - 1 3 t d f j L 4.g ",
"xXxXxXxXxXxXxXxXzXzX0.: , : w d J J z 1 $ $ % C ..O.6.j.Z.F.J.>X>X>X:X:X<X<X<X-X>X*XS.A.Z.j.j.A.F.m.f.K h t > % 1 < t f f g x J ",
"xXxXzXcXvXhXyX.X[.F & : * ; t J L J f & $ $ 5 ] 5.6.g.g.Z.F.F.>X>X>X:X1X<X<X<X:X*XS.F.G.n.n.g.j.m.j.j.u.K f 5 $ - > , i g g z z ",
"w.( J d w 9 > ; = : , : : : t C J f u > $ % C ..6.g.g.j.Z.A.J.>X>X>X>X:X:X<X-X-X;XF.F.F.m.m.H.m.m.f.f.f. .K 6 $ $ * 1 t t y f z ",
"N N v q 3 3 q q q 0 2 2 , 0 f J f f < # $ % C  .6.p.g.j.g.A.*X;X>X:X:X1X,X1X<X,X-X-X<X<X,X;X&X&X;XN.j.p.u.X.5 $ # * > i i t t t ",
",.T N v e u u e w q w w w d F J J N t $ + 5 L u.p.j.j.F.H.>X-X5X<X2X2X2X2X5X5X,X,X'.l.@.U _ I U 4.d.h.p.u.4.t + @ @ $ t t t 1 5 ",
"vXqXW s s s s v a a a u d f F J J J < O + t 3.s.3.] } @.@.l.l.'.1X5X7X5X5X5X`.'.@.V ` ` ` _ U $.9.#...d.h...y $ O # * < t 5 1 1 ",
"xXlXyXP S M M n b b d a u M D I L I t $ . p 9.L h V C ` ` ` V [ $.'.,X,X,X,X'.$.[ [ { $.c.M.`.c.z.b.9.3.h.3.t + O = * 6 5 < 1 1 ",
"zXlXuXT S S D D n b s s b s F ! L J d % . p 3.x  .a.z.l.d...[ U } %.f.D.&X&Xk.&.&.a.*.*.a.*.&.+.| { ..} 9.9.g + # # = 1 i 5 1 i ",
"kXyXw.G R >.1.1.>.P S s s f F I I ! f % + N 9.|  .O.&.O.&.a.+.=.{ { g.G.-X*Xx.%.&.&.[ A 6 5 5 h l ] ] | u.h.j + # + > t 5 t & 1 ",
"8.R T ( 1.!._.).^.1.T B s s F ! L J p & . C 9.X.x k h ` - - 7 {  .+.O.F.3X:Xz.#.a.{ $.Y.O o _ U h ]  .&.h.h.K % % 6 h h t 1 % % ",
"E / r._.).).'.#X%X(._.) M a N Q L z f y + K h.3.| l h '.` O A '.+.*.O.>X4X1Xc.&.*.*.'.c.Y.[ &.&.&.b.n.n.C.j.} y j ] l h p $ > < ",
"R R.{.#X$X#X#X$X$X$XoX) H b M ! L k j K y K j.j.g.g.O.&.*.&.-.c.c.a.x.>X1X<XS.f.*.`.=X'.=X*XM.x.H.:X;Xm.j.j.3.x ] { O.+.A o + $ ",
",.E.$XfX6X6X5X6X6X6X%XT.H m f E z g x | ] X.h.j.j.A.A.A.S.*XM.`.A.A.A.F.>X>X*XS.`.*X,X,X,X,X,X,X<X3XH.H.m.m.3.X.k O.G.k.l . . + ",
"T.%X$XfXgXgXhXgXgXfX#XI.B m s ! z % h N...3.h.j.F.J.J.>XJ.J.>X>XJ.A.G.*X:X1X*XS.A.-X1X1X1X5X1X<X<X,XH.C.j.j.4.] h.&X,X`.- . O X ",
"1.T.$XfXgXgXgXhXhXgX%XT.B B b G g 1 8 M.H.5.6.j.J.>X>X>X>X4X4X4XA.Z.*X-X1X1X*XG.c.*X5X7X5X5X2X2X,X-X;Xj.h.p.X.]  .N.-Xd.o o = 6 ",
"/ T.$XfXgXhXgXhXgXgX$X^.^ B b D J j y s.3Xh.3.j.F.>X3X4X4X4X4X>XS.*X>X7X7X1X1X1X-X*X<X7X7X5X1X2X<X-XN.b.6.5.3.x  .b.M.U   o 1 0.",
"^ T.$XqXhXqXqXqXgXgXqXOX^ v b S J z z 9.;Xi.3.p.m.>X4X>X4X4X4XG.G.G.G.*X*X`.&.{ &.-.`.5X1X1X1X1X-XN.m.s...4.3.3.m.M.v.% . % f  X",
"^ I.{.qXqX$X%X%XqXfX$X@X^ v v S P D z } k.b.| 3.j.H.>X3X3X3X4XG.=.{ $.{ +.{ $.$.*.+.&X1X1X1X-X-X;XN.f.u...} X.p.J.;Xy + I 8.w.XX",
"H / T.@X%X@XI.I.@X%X@XT.H r w S D J c J s.m.3.| p.m.H.H.>X>X>X>XF.*XS.-X,X,X*X*X*X*X:X:X<X<X-X;XN.v.s. .| } X.X.v.h . + @..X|.t.",
"H B ^ U.U.L.K.L.L.U.U.^ B r e S D F N t } D.m.X.O.j.m.H.>XJ.>XF.A.m.x.M.*X&X'.c.M.D.*X-X-X;XH.H.m.s.p.u...} 4.z t . % L wXwXC.t.",
"m B B ~ L.L.L.L.P.~ ~ B v 0 w n S F s i y z h K } 3.j.H.F.H.S.M.n.a.a.-.G.*X*.*.`.`.`.N.`.`.&XM.b.h.5.3.X.3.} t.4.4.9XtXtXtXtXrX",
"a a B B ~ ~ P.~ ~ ~ B m r 2 w S S S s 9 i t & J } 3.6.j.v.N.b.d.{ ;.' ' =.' ' ;.' =.$.'.'.k.k.b.s.u.u...X.4.4.C.9XtXtXtXtXtXtXtX",
"e e e m B B B ^ B B m q 2 0 e M S n a , * , d c } | 3.p.s. .l l h l l ;.' ;.;.;.l A ` l { a.s.s.u.u...} X.] } y.B.C.9X9XwXrXtXtX",
"a w 0 w e m m a e r 0 0 0 q w M n S e : @ : f J L 4.3.5.p.i. .{ *.-.-.=X=X=X=X-.*.*.*.$.a.c.k.%. ...| ] x x 4.4.q.q.B.|..X8XwXtX",
"a w w 0 0 0 0 0 0 0 0 0 r e a n M s a : @ ; d c L L ] 3.5.n.z.&.+.=.+.*.*.*.=.=.=.$.&.*.z.a.#. .[ } ] z j x 3.} :.:.4.q.B.|.wXtX",
"a 0 0 0 0 0 0 0 0 2 q S R T G S n n w : @ : d f c z L X.| i.p.u...] ' l h h A Z ' { ..u.%.#.| [ [ K j h j ] 3.4.f D D H :.|.8XrX",
"e 0 0 0 0 0 0 0 0 0 s / ,.2.2.T n a e : & : t d c g z K K }  .6.7.O.O.%.{ ' +.+.&.&.%.#.#.#. .[ K j h k ] ..3.} 6 3 4 6 E B..XrX",
"e r 0 0 0 0 0 0 2 2 u T 1.w.2.>.M a w : @ ; w d c g z X.K ] | 5.g.g.F.A.x.&X*XS.M.z.z.a.a.#.} Z h h k ] X.O.3.@.1 * 4 3 H t..XrX",
"e 0 0 0 0 0 0 0 0 2 3 s G P G S n a 9 : @ 9 w g g g j 4.] x X.3.p.g.g.S.M.S.`.`.`.z.a.a.d.} j h j h ]  .5. .O.d.E 3 4 r T E.9XrX",
"e 9 9 0 0 0 0 , 2 2 0 , 2 0 0 b b a w : @ 2 d F :.L L 3.5.] k K Z [ %.%.a.&.&.l.$.[ U @.[ h y h h ] ..5.i.i.o. .j.y.c f R t..X8X",
"e 0 0 0 0 0 , 0 , , 2 2 2 2 w a v a 0 : @ 9 d :.:.4.4.4.3.5.] j 5 % C A [ U Z A p - 7 h p y 7 h ] O.a.a.i.i.5.5.5.j.C.h.y.t.|.8X",
"M s a a a a w a w e w q w e e a e 0 : X X : a G ! Q 4.3.3.i.5.X.j t % - * - - % O O - 5 5 p k [ a.a.f.a.i.a.5.o.5.6.7.Z.m.m.m.v.",
",.,.2.2.2.2.2.2.2.R G s 0 0 0 0 4 = X X o   o @ T E.C.9...5.i.5.X.x j 8 % O + + O - 5 y h [ #.z.x.c.g.f.s.s.u.5.3.6.7.j.j.j.Z.A.",
"0X8X8X8X0X8X0X8X8XXXw.D 0 : : @ X X       o v ( {.(.'.@.3.u.6.p...X.| X.k l h 7 h j Z [ | &.b.M.z.x.f.k.f.k.u.5.O.O.g.n.Z.Z.g.Z.",
"uXuXuXiXiXiXiXuXrX8X[.R :   o o o     4 ) (.#X#X(.(._.) ..5.p.p.6.X.| 6.f.i.O.6.i.%.%.&.u.a.M.M.x.z.z.z.a.a.a.%.7.7.j.x.Z.Z.Z.Z.",
"tXtXuXiXiXrXrXrXeX0X|.q.S $       - ) {.#XOX(.OX).)._.U }  .i.p.p.O.X.X.%.c.M.M.d.#.#.%.&.z.x.M.b.k.s.a.s.d.a.a.%.g.M.A.Z.c.c.z.",
"eXrXrXrXrXrXrXrXrXeXwX|.q.d @ m 1.#X#X(.~.~.(.OX^.^.^.@..... .6.p.7.| x K ] [ { [ { #.%.l.b.b.b.k.l.d.a.u.a.d.a.a.b.M.&XS.`.'.).",
"eXeXrXrXeXrXrXrXrXtXrXeXXXB.{.#X%XOX/.OX/.W./.oX~.~.oXy.#. .O. .5.p.5.X.X.] ' Z [ [  .%.a.z.b.k.%.%.%.%.u.s.s.x.b.n.&X`.'.'.oXoX",
"rXrXrXrXtXtXiXtXiXtXeX0X#X#X^.).~.+X~./.).!./.OX~.W.oX~.@.d.o.| | 5.6.O. .| .. .#.%.%.a.a.k.&.%.#.#.%.l.k.z.b.`.M.M.`.`.).~.oXoX",
"tXtXtXiXiXsXtXpXuXeX#X{.(.OX^.).oX~.!.!.W./.OXW.~.W.~.~._.y.l.u. ...6.O.X.X.|  .o. . .O.i.s.&.%.O.%.z.b.N.`.`.`.`.N.).).oXoX@XoX",
"tXsXtXsXtXtXiXuX X{.~.OXOX).OX~.Q.Q.Q.Q.!.^.^.@XQ.!.oX~.W.~.l.l.p.| ..O.O.X.' ] X.' [ O.a.&.a.k.k.M.`.&X-X`.&X'.{.(.OX+X+XQ.+XoX",
"8XwX8X|..X.X0X{.(.(.W./.Q.~.W.W.+X~.!.!.!.Q.Q.oXQ.!.oX+XQ.W.).).'.k.&.a.f.%.{ X.] { { &.x.x.M.*X&X;X;X,X&X`.'.+X/.oX+X+X+XQ.+XoX",
"0 : : S [.#X(./.W./.oX/.W./.W./.+X+XQ.Y.oXoX!.!.+XQ.W.+X+XoXoX!._._.l.z.*XS.S.x.g.a.g.Z.D.*X&X*X;X`.'.'.oX+X@X@X+X#X+XW.+X/.+X+X",
"  @ >.{.(.OX(.(.W.W.W./.OXoX/.+XoX%XQ.!.oX~.!.Q.oXoX~.oXoXQ.oX+XoXW.!._.'.'.,X,X;XM.x.F.D.&X`.#X'.).^.!.T.@X~.oXoX/.@X@XoXoXQ.+X",
"S XX$X(.(.)./.).^.!.!.~.%X/.+XoX!.oXQ.Q.oXoXQ.oX~.Q.oXoX/.Q./.oX/.oXQ.@XQ.) !.~._._.).~.W.Q.@XQ.Q.@X@X@X~.!.~.+X+XQ.+X+XoXoX!.Q."
};
